/* XPM */
static char *result[] = {
/* columns rows colors chars-per-pixel */
"64 64 122 2 ",
"   c #156B46",
".  c #1A6D47",
"X  c #176B48",
"o  c #1B6D49",
"O  c #1F7046",
"+  c #1F704C",
"@  c #247247",
"#  c #24724A",
"$  c #2B7549",
"%  c #2E794D",
"&  c #30774A",
"*  c #347A49",
"=  c #3B7D4B",
"-  c #267452",
";  c #2A7754",
":  c #297857",
">  c #2E7A59",
",  c #317B52",
"<  c #337D5C",
"1  c #367F60",
"2  c #35805A",
"3  c #39805C",
"4  c #358061",
"5  c #3B8364",
"6  c #3D8668",
"7  c #44824A",
"8  c #4B854B",
"9  c #548A4B",
"0  c #5C8E4C",
"q  c #64924D",
"w  c #6C964E",
"e  c #6F984F",
"r  c #739A4F",
"t  c #719850",
"y  c #7B9E50",
"u  c #7FA052",
"i  c #408466",
"p  c #408769",
"a  c #44896D",
"s  c #478B70",
"d  c #4D8F73",
"f  c #4E9176",
"g  c #529177",
"h  c #54947A",
"j  c #5A977D",
"k  c #5C997F",
"l  c #82A14F",
"z  c #85A350",
"x  c #8CA651",
"c  c #8FA951",
"v  c #86A55A",
"b  c #92A952",
"n  c #82A363",
"m  c #8DAB6C",
"M  c #90AA66",
"N  c #92AD6B",
"B  c #5C9980",
"V  c #639C85",
"C  c #66A18A",
"Z  c #6CA38E",
"A  c #6CA590",
"S  c #75A692",
"D  c #72A994",
"F  c #7BAD9B",
"G  c #7FB09E",
"H  c #85B5A4",
"J  c #8DB6A5",
"K  c #8DBAAA",
"L  c #93BCAC",
"P  c #99BEAE",
"I  c #93BFB0",
"U  c #97C2B3",
"Y  c #9AC2B4",
"T  c #9FC6BA",
"R  c #A2C3B6",
"E  c #A2C6BA",
"W  c #A4C9BD",
"Q  c #ACCABD",
"!  c #B0CBBF",
"~  c #CAD2AD",
"^  c #D0D5AF",
"/  c #D2D6B2",
"(  c #D4D7B8",
")  c #D6D8BA",
"_  c #A6CDC0",
"`  c #ABCCC1",
"'  c #B1CEC1",
"]  c #ADD2C7",
"[  c #B0D0C6",
"{  c #B2D4CA",
"}  c #BAD4CB",
"|  c #BDDCD4",
" . c #C4DBD4",
".. c #CADDD5",
"X. c #C4DFD9",
"o. c #C4E1DA",
"O. c #CBE3DE",
"+. c #D6E5DF",
"@. c #CDE5E1",
"#. c #CEE9E4",
"$. c #D1E6E2",
"%. c #D2EAE6",
"&. c #DFEBE6",
"*. c #D5EEEA",
"=. c #DBEDEB",
"-. c #DBF1EE",
";. c #DFF2F0",
":. c #E7E7E2",
">. c #E1ECE7",
",. c #E6F1ED",
"<. c #E9F2EE",
"1. c #E5F5F5",
"2. c #E9F6F5",
"3. c #E4F9F7",
"4. c #EDF9F7",
"5. c #E6F5F8",
"6. c #ECF6F8",
"7. c #ECFEFE",
"8. c #F2F7F5",
"9. c #F3F9F7",
"0. c #F2FEFE",
"q. c #FBFEFE",
/* pixels */
"q.q.q.0.q.q.0.q.q.q.7.7.1.1.q.q.q.q.q.0.q.q.7.q.q.q.7.7.1.1.q.q.q.q.q.7.q.q.0.q.q.q.7.7.1.1.q.q.q.q.q.0.q.q.0.q.q.q.7.7.1.1.q.q.",
"q.q.q.7.7.7.7.1.2.q.7.7.1.q.q.2.q.q.q.0.7.7.7.1.1.q.7.7.1.q.q.2.q.q.q.7.7.7.7.1.2.q.7.7.1.q.q.1.q.q.q.7.7.7.7.1.2.q.7.7.1.q.q.2.",
"7.q.0.1.1.7.7.1.q.0.7.1.q.q.0.7.7.q.7.1.1.7.7.1.q.0.7.1.q.q.7.7.0.q.7.1.1.7.7.1.9.0.7.1.q.q.q.7.7.q.7.1.1.7.7.1.q.0.7.1.q.q.0.7.",
"q.1.1.1.q.q.1.q.q.7.7.1.q.q.7.1.q.2.1.1.q.q.1.q.q.7.7.1.q.q.7.1.q.1.1.1.q.q.1.q.q.7.7.1.q.q.7.1.q.1.1.1.9.q.1.q.q.7.7.1.q.q.7.1.",
"q.q.7.7.7.q.6.q.7.7.1.q.q.7.7.2.q.q.7.7.0.q.1.q.7.7.1.q.q.0.7.1.q.q.7.7.7.q.2.q.0.7.1.q.q.7.7.1.q.q.7.7.7.q.1.q.7.7.1.q.q.7.7.2.",
"0.7.7.7.1.q.q.q.1.3.1.1.7.0.7.q.7.7.7.7.1.q.q.q.1.7.1.1.7.7.7.q.7.7.7.7.1.q.q.q.1.3.1.1.7.7.7.q.0.7.7.7.1.q.q.q.1.7.1.1.7.7.7.q.",
"q.2.1.1.q.7.2.9.1.1.1.q.0.7.1.1.q.1.1.1.q.7.1.q.1.1.1.9.7.7.1.1.q.1.1.1.q.7.1.q.1.1.1.q.0.7.1.1.q.1.1.1.q.7.2.q.1.1.1.q.0.7.1.1.",
"q.q.7.7.7.7.7.1.q.q.1.1.q.7.7.q.q.q.7.7.7.7.7.1.q.q.1.1.q.0.7.q.q.q.7.7.7.7.5.1.q.q.1.1.q.7.7.q.q.q.7.7.7.7.7.1.q.q.1.1.q.7.7.q.",
"q.7.7.7.1.1.1.1.q.q.q.1.q.q.7.7.q.7.7.7.1.1.1.1.q.q.9.1.q.q.7.0.q.0.7.7.1.2.1.1.q.q.q.1.q.q.7.7.q.7.7.7.1.1.1.1.q.q.0.1.q.q.7.7.",
"7.7.7.q.q.q.q.7.7.7.7.1.9.2.1.1.7.7.7.q.q.q.q.7.7.7.7.2.q.2.1.1.7.7.7.q.q.q.q.7.7.7.7.1.q.1.1.1.7.7.7.q.q.q.q.7.7.7.7.1.q.2.1.1.",
"q.q.q.1.7.7.7.7.7.7.1.q.q.7.7.1.q.q.q.1.7.7.0.7.7.7.1.q.q.7.7.1.q.q.q.1.7.7.7.7.7.3.3.q.q.7.7.1.q.q.q.1.7.0.7.7.7.7.1.q.q.7.7.1.",
"q.2.1.7.7.7.1.1.1.1.1.q.7.7.1.7.q.1.1.7.7.7.1.1.1.1.1.q.7.7.1.7.q.1.1.7.7.7.1.1.1.1.1.q.7.7.1.7.q.1.1.7.7.7.1.;.1.1.1.q.7.7.1.3.",
"0.q.7.1.1.1.3.q.q.q.7.1.1.7.1.1.7.q.7.1.1.1.3.q.q.9.7.1.1.7.1.-.7.q.7.1.1.1.7.q.q.q.7.1.1.7.1.1.7.q.7.1.1.;.7.q.q.q.7.1.1.7.1.1.",
"7.7.7.1.7.7.7.1.q.0.7.2.q.q.7.3.7.0.7.1.7.7.7.1.q.0.7.3.q.q.-.D @.7.7.1.3.7.3.1.q.7.7.2.q.q.7.7.7.0.7.1.7.7.7.1.q.7.7.2.q.q.7.3.",
"q.0.q.1.1.;.1.q.q.q.q.q.q.7.7.2.q.0.q.1.1.;.1.q.q.q.q.q.q.7.%.5  .0.q.1.1.1.1.q.q.q.q.q.q.0.7.3.q.0.q.1.1.;.1.q.q.q.q.q.q.7.7.1.",
"q.q.q.7.7.1.1.2.1.2.7.q.2.3.7.q.q.q.q.7.7.1.1.2.1.2.0.q.1.7.$.6 ..q.q.7.7.1.1.1.1.2.7.q.1.7.1.q.q.q.q.7.7.1.1.2.1.2.7.q.1.7.2.q.",
"q.q.q.0.q.q.7.q.q.q.7.7.1.1.q.q.q.q.q.0.q.q.7.q.q.9.7.7.1.=.Q < L <.q.7.q.q.7.q.q.q.7.7.,.2.q.q.q.q.q.0.q.q.7.q.q.q.7.7.1.1.q.q.",
"q.q.q.7.7.7.7.1.2.q.7.7.1.q.q.2.q.q.q.7.0.7.7.1.1.q.0.7.1...; $ # ' q.7.7.0.7.1.1.q.7.7.1.q.q.2.q.q.q.7.7.7.7.1.1.q.7.7.1.q.q.2.",
"q.q.7.1.1.7.7.1.9.0.7.1.q.q.0.7.0.q.-.=.1.7.7.1.q.7.7.1.q..., x = ` 7.1.1.7.7.1.q.7.7.,.<.q.7.7.7.q.7.1.1.7.7.1.q.7.7.1.q.q.0.7.",
"q.2.;.1.q.q.1.q.q.7.7.1.q.q.7.1.q.1.C Y q.q.1.q.q.7.7.1.q..., b = E 1.1.q.q.2.q.q.7.7.[ k 2.7.1.q.6.1.1.q.q.1.q.q.7.7.1.q.q.7.1.",
"q.q.7.7.7.q.2.q.7.7.5.q.q.7.7.1.q.q.j < I q.2.q.7.7.1.q.q.| , b = ` 7.7.7.q.2.q.0.7._ 6 5 -.7.1.q.q.7.7.7.q.1.q.7.3.1.q.q.7.7.1.",
"7.7.7.7.1.q.q.q.1.5.1.2.7.7.7.q.7.3.j o 5 P q.q.1.7.1.1.o.k % b = f [ 7.1.q.q.q.1._ a X 5 -.7.q.7.7.7.7.1.q.q.q.1.7.1.1.7.0.7.q.",
"q.1.1.1.q.7.2.q.1.1.1.q.0.7.1.1.q.1.h X   1 P 8.1.1.1.q.` X @ c *   G 5.q.7.2.q.W s     5 -.1.2.q.2.1.1.q.7.2.q.2.1.1.q.7.7.1.1.",
"q.q.7.7.7.7.3.1.q.q.1.1.q.0.7.q.q.9.H < $ = < T 8.q.1.1.' o $ b =   H 7.7.7.3.` a * * ; S 1.7.q.q.q.7.7.7.3.7.1.q.q.1.1.q.0.7.q.",
"q.0.7.7.1.1.1.1.q.q.0.3.q.q.7.7.q.0.7.A 8 r * % ` 9.q.1.! o $ c * X H 7.2.;.{ 4 $ q 0 g 9.q.7.7.q.7.7.7.3.1.;.1.q.q.0.1.q.q.7.7.",
"0.7.7.q.q.q.q.7.7.7.7.1.q.1.1.1.0.7.0.S . 7 y $ ; W 3.3.! o $ b = . H q.9...1 $ y 9 X h 9.2.1.1.7.7.7.q.q.q.q.7.7.7.7.1.q.1.1.1.",
"q.q.q.1.7.7.7.7.7.3.1.q.q.7.7.1.q.q.q.D . O 2 x $ : Y q.] o $ b * . J 1.| 4 # z 8 O   k q.7.7.1.q.q.q.1.7.7.7.7.7.7.1.q.q.7.7.1.",
"q.1.1.7.7.7.1.;.1.1.1.q.7.7.1.7.q.6.2.#.S . * b % X 2 E Q o $ b = X H { 6 X # x 7   j +.7.7.1.7.q.2.1.7.7.7.1.1.1.1.3.q.7.7.1.5.",
"0.q.7.1.1.1.7.q.q.q.7.1.5.7.1.2.q.q.9.9.K X @ 7 r *   F W X @ c *   J Y   @ w 9 @   D 1.1.7.1.1.7.q.7.1.1.1.7.q.q.q.7.1.1.7.1.1.",
"7.7.7.1.7.7.7.1.q.0.7.1.q.q.7.0.q.0.0.6.o.V X O 9 q * a J S % c 2 V H h $ 0 0 @   g { 1.q.q.7.7.7.0.7.1.3.7.7.1.q.0.7.2.q.q.7.7.",
"q.q.q.1.;.;.3.q.q.q.q.q.q.7.7.q.q.0.q.7.9.` o X X l 9   d H & c = S V X 7 b @   X L q.q.q.0.7.3.q.7.q.1.;.1.1.q.q.q.q.q.q.0.7.1.",
"q.q.q.7.7.1.1.5.1.1.7.q.2.7.9.q.q.q.q.0.q. .a o o w 0 $ X X $ b = . X # 9 r # X 5 E q.q.6.7.9.q.q.q.q.7.7.1.1.2.1.1.7.q.1.3.1.q.",
"q.q.q.7.q.q.7.q.q.q.7.7.1.1.9.>.>.>.>.%.&.,.o.6 O o w q # X $ b =   @ 9 r @ X < } ,.%.%.O.$.&.&.8.q.q.0.q.q.7.q.q.q.7.7.1.1.q.q.",
"q.q.q.7.7.7.7.1.1.q.7.7.1.q. .6 < < 3 3 , C =.} 5 X o 0 e X $ b =   0 w @ X > Q &.H , < < < < < ` q.q.7.7.7.7.1.1.q.7.7.1.q.q.1.",
"q.q.7.1.1.7.7.1.q.0.7.1.q.q.3._ ; X w x 0 ; a f Q s   @ 9 t $ x = q q $ X > E k a > 8 x y # o L 1.q.0.1.1.7.7.1.q.0.7.1.q.q.9.7.",
"q.1.1.1.q.q.1.q.q.7.7.2.q.q.7.=.Q , * 7 0 y q # g ;     @ 8 v ~ M 9 $     + f - 0 l q 7 7 # I =.q.1.1.1.q.q.1.q.q.7.7.1.q.q.7.1.",
"q.q.7.7.0.q.2.q.0.7.1.q.q.0.7.1.9.R 5   & 0 0 w w w w w w u ( :.) m q e w w w w 0 0 = X : J ;.1.q.q.7.7.7.q.2.q.7.7.1.q.q.0.7.1.",
"0.7.7.7.2.q.q.q.1.3.1.1.7.7.7.q.0.7.I Z Z h % w e r e e w n / :.) N e e e e e w & a A Z H 3.7.q.7.7.7.7.1.q.q.q.1.3.1.1.7.7.7.q.",
"q.2.1.1.q.7.1.q.1.1.1.q.7.7.1.1.q.1.1.1.q. .g g g g >   # 9 v ^ N 9 % X - h f h d E 1.q.7.7.1.2.q.1.1.1.q.0.2.q.1.1.1.q.7.7.1.1.",
"q.q.7.7.7.7.3.1.q.q.1.1.q.7.7.q.q.q.7.7.7.7.1.1.9.>.h o 9 t $ y = q 0 $ 6 o.;.1.8.q.1.1.q.7.7.q.q.q.7.7.7.7.3.5.q.q.1.1.q.7.7.q.",
"q.7.7.7.1.1.1.1.q.q.0.1.q.q.7.7.q.7.7.7.1.2.1.1.1.k @ 0 e # ; # ; # 0 w # 6 o.1.q.q.q.1.q.q.7.7.q.0.7.7.1.1.1.1.q.q.9.1.q.q.7.7.",
"0.7.7.q.q.q.q.7.7.7.7.1.q.1.1.1.7.7.7.q.q.q.q.=.h # q q $ a _ 1 E k $ 9 e + a O.7.7.7.1.q.2.1.1.7.7.7.q.q.q.q.7.7.7.7.1.q.1.1.1.",
"q.q.q.1.7.7.0.7.7.7.1.q.q.7.7.1.q.q.q.1.7.7.#.j @ X $ $ d | #.5 ..$.V # * O X f | 3.3.q.q.7.7.1.q.q.q.1.7.7.7.7.7.7.1.q.q.7.7.1.",
"q.2.1.7.7.7.1.1.1.1.1.q.7.7.1.7.q.2.1.7.7.7.%.K K K K P { 7.@.6  .1.| K K U K H O.1.1.q.7.3.1.7.q.2.1.7.7.7.;.1.1.1.1.q.7.7.1.3.",
"7.q.7.;.1.1.7.9.q.q.7.1.1.7.1.1.7.q.7.1.1.1.7.q.q.q.7.1.1.7.@.5 | q.7.1.1.1.7.q.q.q.7.1.1.7.1.1.7.q.7.1.1.1.7.q.q.q.7.1.1.7.1.1.",
"7.7.7.1.7.7.7.1.q.0.7.1.q.q.7.7.7.7.7.1.7.7.7.1.q.0.7.1.q.q.*.5 | 7.7.1.3.7.7.5.q.0.7.2.q.q.7.7.7.7.7.1.7.7.7.1.q.0.7.2.q.q.7.7.",
"q.7.q.1.1.1.1.q.q.q.q.q.q.7.7.1.q.0.q.1.1.;.1.q.q.q.q.q.q.7.=.B ..q.q.1.1.;.5.q.q.q.q.q.q.7.7.7.q.0.q.5.1.;.1.q.q.q.q.q.q.7.7.1.",
"q.q.q.7.7.1.1.1.1.2.0.q.2.3.7.q.q.q.q.7.7.1.1.1.2.1.0.q.1.7.2.<.q.q.q.7.7.1.1.1.2.2.7.q.2.7.1.q.q.q.q.7.7.1.1.1.1.1.0.q.1.7.1.q.",
"q.q.q.0.q.q.7.q.q.q.7.7.1.1.q.q.q.q.q.0.q.q.7.q.q.q.7.7.1.1.q.q.q.q.q.7.q.q.7.q.q.q.7.7.1.1.q.q.q.q.q.0.q.q.7.q.q.q.7.7.1.1.q.q.",
"q.q.q.7.7.7.7.1.1.q.7.7.1.q.q.2.q.q.q.7.7.7.7.1.1.q.7.7.2.q.q.2.q.q.q.7.7.9.7.1.1.q.7.7.1.q.q.1.q.q.q.7.7.7.7.1.1.q.7.7.1.q.q.1.",
"7.q.0.1.1.7.7.1.q.7.7.1.q.q.0.7.0.q.7.1.1.7.7.1.q.7.7.1.q.q.7.7.0.q.7.1.1.7.7.1.q.0.7.1.q.q.7.7.7.q.0.1.1.7.7.1.q.7.7.1.q.q.0.7.",
"q.1.1.1.q.q.1.q.q.7.7.1.q.q.7.1.q.1.1.1.q.q.1.q.q.7.7.1.q.q.7.1.q.6.1.1.q.q.2.q.q.7.7.2.q.q.7.1.q.2.1.1.q.q.,.q.q.7.7.1.q.q.7.1.",
"q.q.7.7.7.q.6.q.7.7.1.q.q.0.7.2.q.q.7.7.7.q.2.q.0.7.1.9.q.0.7.1.q.q.7.7.0.q.1.q.7.7.1.q.q.0.7.1.q.q.7.7.7.q.1.q.7.7.1.q.q.0.7.1.",
"7.7.7.7.1.q.q.q.1.7.1.1.7.7.7.q.7.7.7.7.1.q.q.q.1.7.1.1.7.7.7.q.0.7.7.7.1.q.q.q.1.7.1.1.7.7.7.q.0.7.7.7.2.q.q.q.1.3.1.1.7.0.7.q.",
"q.2.1.1.q.7.1.9.1.1.1.q.7.7.1.2.q.1.1.2.q.7.6.q.1.1.1.q.0.7.1.2.q.1.1.1.9.7.1.q.1.1.1.9.7.7.1.1.q.2.1.1.q.7.3.q.2.1.1.q.7.7.1.1.",
"q.q.7.7.7.7.7.1.q.q.1.2.q.7.7.q.q.q.7.7.7.7.3.1.q.q.1.1.q.7.7.q.q.q.7.7.7.7.7.2.q.q.1.1.q.7.7.q.q.q.7.7.7.7.7.1.q.q.1.2.q.7.7.q.",
"q.0.7.7.1.1.1.5.q.q.q.1.q.q.7.0.q.7.7.7.3.1.1.1.q.q.q.1.q.q.7.7.q.0.7.7.1.2.1.1.q.q.q.1.q.q.7.7.q.0.7.7.1.1.1.1.q.q.0.1.q.q.7.7.",
"7.7.7.q.q.q.q.7.7.7.7.1.9.3.1.1.7.7.0.q.q.q.q.7.7.7.7.1.q.1.1.1.7.7.7.q.q.q.q.7.7.7.7.1.q.1.1.1.7.7.7.q.q.q.q.7.7.7.7.1.q.1.1.,.",
"q.q.q.1.7.7.7.7.7.7.1.q.q.7.7.1.q.q.q.1.0.7.7.7.7.7.1.q.q.7.7.1.q.q.q.2.7.7.7.7.7.3.1.q.q.7.7.1.q.q.q.1.7.7.7.7.7.7.1.q.q.7.7.1.",
"q.2.1.7.7.7.;.1.1.1.1.q.7.7.1.7.q.1.1.7.7.7.1.1.3.;.5.q.7.7.;.7.q.1.1.7.7.7.1.1.1.1.1.q.7.7.1.7.q.2.1.7.7.7.1.1.1.1.1.q.7.7.1.3.",
"0.q.7.1.;.1.7.q.q.q.7.1.1.7.1.1.7.q.7.1.1.1.7.q.q.q.7.1.1.7.1.1.7.q.7.1.1.1.7.9.q.q.7.3.1.7.1.1.7.q.7.1.1.1.7.q.q.q.7.1.2.7.1.1.",
"7.0.7.1.7.7.7.1.q.0.7.1.q.q.7.7.7.7.7.1.3.7.7.1.q.7.7.1.q.q.7.7.7.7.7.1.7.7.7.1.q.0.7.1.q.q.7.7.7.0.7.1.3.7.7.1.q.0.7.2.q.q.0.3.",
"q.0.q.1.;.1.1.q.q.q.q.q.q.0.7.1.q.0.q.1.1.1.1.q.q.q.q.q.q.0.7.2.q.7.q.1.1.1.1.q.q.q.q.q.q.7.7.2.q.7.q.1.1.1.1.q.q.q.q.q.q.7.7.1.",
"q.q.q.7.7.1.1.1.1.1.0.q.1.3.1.q.q.q.q.7.7.1.1.1.1.5.0.q.1.7.1.q.q.q.q.7.7.1.;.1.1.1.7.q.1.7.1.q.q.q.q.7.7.1.;.1.1.1.7.q.2.7.1.q."
};
