/* XPM */
static char *result[] = {
/* columns rows colors chars-per-pixel */
"64 64 175 2 ",
"   c white",
".  c #FDFFFE",
"X  c #EFFFFF",
"o  c #FCFDFF",
"O  c #EDFFFF",
"+  c #ECFEFE",
"@  c #E3F3F3",
"#  c #E6F4F4",
"$  c #FAFEFF",
"%  c #FEFFFF",
"&  c #FAFEFD",
"*  c #FFFFFD",
"=  c #EFFFFE",
"-  c #E4F4F3",
";  c #FBFFFF",
":  c #EBFFFE",
">  c #E5F5F5",
",  c #E7F5F5",
"<  c azure",
"1  c #EBFDFD",
"2  c #E6F6F6",
"3  c #FBFDFC",
"4  c #E8F6F6",
"5  c #ECFEFF",
"6  c #F9FFFF",
"7  c #E9F5F5",
"8  c #EEFEFE",
"9  c #E4F4F4",
"0  c #E6F4F5",
"q  c #EEFFFF",
"w  c #EDFDFC",
"e  c #E3F5F5",
"r  c #F9FDFC",
"t  c #E2F4F4",
"y  c #F8FCFD",
"u  c #F1FFFF",
"i  c #EAFEFD",
"p  c #F0FEFF",
"a  c #EDFDFD",
"s  c #E4F3F6",
"d  c #FCFEFD",
"f  c #E9F5F3",
"g  c #E1F5F4",
"h  c #E6F6F5",
"j  c #FAFCFB",
"k  c #F9FDFE",
"l  c #ECFFFD",
"z  c #F9FDFF",
"x  c #E5F3F3",
"c  c #FBFFFE",
"v  c #F0FEFE",
"b  c gray99",
"n  c #FBFDFA",
"m  c #FCFEFB",
"M  c #FDFDFF",
"N  c #E8FCFB",
"B  c #F8FEFE",
"V  c #E7F5F6",
"C  c #EAFCFC",
"Z  c #E9F7F7",
"A  c #E8F6F7",
"S  c #E6F5F8",
"D  c #EAF6F6",
"F  c #E2F5F3",
"G  c #F7FDFD",
"H  c #E9FBFB",
"J  c #E8F3F5",
"K  c #E9FBFD",
"L  c #FAFFFF",
"P  c #F5FEFD",
"I  c #E5F5F4",
"U  c #F5FEFB",
"Y  c #FAFFFB",
"T  c #F9FEFA",
"R  c #E8F7F4",
"E  c #E7F7F7",
"W  c #E9FDFC",
"Q  c #EBFFFD",
"!  c #ECFCFC",
"~  c #FDFDFD",
"^  c #EBFBFB",
"/  c #FBFCFE",
"(  c #EEFEFD",
")  c #E5F4F7",
"_  c #EBFEFC",
"`  c #EEFDFF",
"'  c #E4F6F6",
"]  c #ECFFFF",
"[  c #EBFDFF",
"{  c #E9FDFB",
"}  c #F1FFFD",
"|  c #E2F4F6",
" . c #FDFEFF",
".. c #FEFEFE",
"X. c #E7F7F6",
"o. c #FDFFFC",
"O. c #E7F6F3",
"+. c #FDFDFB",
"@. c #F1FDFD",
"#. c #F9FEFF",
"$. c #F8FCFB",
"%. c #E1F4F2",
"&. c #E6F6F3",
"*. c #EAF5F7",
"=. c #EBF6F8",
"-. c #EDFFFE",
";. c #EAF4F5",
":. c #F8FCFF",
">. c #E8FCFD",
",. c #E8F4F4",
"<. c #F5FDFF",
"1. c #E1F3F3",
"2. c #EAFDFB",
"3. c #EDF7F6",
"4. c #EBF7F7",
"5. c #E9FFFD",
"6. c #EEFCFD",
"7. c #F5FFFF",
"8. c #F2FBFA",
"9. c #EBF9F9",
"0. c #EAFEFC",
"q. c #F4FEFF",
"w. c #F4FFFF",
"e. c #F2FEFE",
"r. c #EDF9F7",
"t. c #F3FDFE",
"y. c #ECFBFE",
"u. c #EDF9F9",
"i. c #F5FBFB",
"p. c #EDF7F8",
"a. c #F1FAF9",
"s. c #F3FFFF",
"d. c #EFFEFF",
"f. c #F0FAFB",
"g. c #F3FCFB",
"h. c #EFF9F8",
"j. c #ECF8F8",
"k. c #EEF8F9",
"l. c #F3FEFF",
"z. c #ECF7F9",
"x. c #FFFEFF",
"c. c #FBFCFF",
"v. c #FCFFFF",
"b. c #F2FAFC",
"n. c #F6FFFE",
"m. c #E9F4F6",
"M. c #FAFBFD",
"N. c #FEFEFC",
"B. c #F4FAFA",
"V. c #F0FAF9",
"C. c #EFFFFC",
"Z. c #EEF8FA",
"A. c #ECFFFE",
"S. c #E2F6F5",
"D. c #E3F6F4",
"F. c #EBFFFF",
"G. c #F8FEFC",
"H. c #E2F6F7",
"J. c #F9FFFD",
"K. c #F7FFFF",
"L. c #EDFCFF",
"P. c #E5F3F4",
"I. c #F2FFFF",
"U. c #EAFCFE",
"Y. c #E9FDFE",
"T. c #FFFDFE",
"R. c #E8F8F8",
"E. c #E7F6F9",
"W. c #E4F2F3",
"Q. c #FCFCFE",
"!. c #EFFDFD",
"~. c #E6F5F2",
"^. c #E3F5F7",
"/. c #E6F4F7",
"(. c #E2F1F4",
/* pixels */
"    . X . . X o . . O + @ # . .     . X . . O $ . . O + @ # . .   % . X . . X & . . O + @ # . . % * . X . . = $ . o X + - # . . ",
".   ; : + O + > , $ < 1 2 3 $ 4 ;   ; + + + 5 > , & X 1 2 3 $ 4 6   ; + + O + > 7 & O 1 2 3 o 4 $   ; 1 + O + > , ; X 1 2 3 $ , ",
"< $ 8 9 > + 1 0 $ q + > 3 % < 1 = $ w 9 e + 1 0 3 < 5 9 r % O 1 X $ 8 t > 1 1 0 y u i 9 3 % p 1 X $ a 9 > + + # y X + s d % = 1 ",
"3 f g h $ $ # j . O 1 # . . 1 2 k f t > k $ # 3 . q 1 , . . + 2 k , t > k $ # 3 . + 1 , . . l 9 z 4 t > z $ x 3 . O 1 , c . + e ",
"% $ + + v 3 7 $ = + 2 y . X : , d o + + X b 7 d X + 2 y . X : # d $ + + 8 3 7 $ = + > y d 8 + , d r O + X d 7 d = i 2 y . O + 2 ",
"X + + 1 , n m M > N 9 , 1 O + B v 1 + + V j d d > N 9 , + O + 6 v + : 1 , 3 j d > N 9 , + O 5 6 v + + 1 , j & d > C 2 , 5 O : k ",
"$ , t 2 r X Z y # 9 > y X l 2 , k A t S & 8 4 y # @ > y X l > 7 k V t 2 & X 4 y 0 9 > y X i e D k A F 2 & O 4 G , 2 > y X + 2 x ",
"% & + 1 + i N , d r 0 0 $ < + $   & O i O 1 H 0 k d # # $ < + $   & + : + i N # 3 d # J z < + 6 * o + i + + K 0 c o # 0 $ < + $ ",
"L X O 8 2 # e > 6 ; P 9 3 $ l 8 ; X O 8 2 x I > 6 ; U > d $ X < c X O 8 2 # > I 6 ; P > d $ l 8 & X O 8 h > 9 , 6 ; P 2 d $ 8 + ",
"X O X k d d k O + u 1 , n 4 9 t 8 O X k Y d $ 8 O O 1 , 3 4 9 9 8 X X z T d & 5 O O 1 , 3 R 9 9 8 X X k d d $ 8 O O 1 # 3 4 9 t ",
"% o r E 8 X + + + 1 V d . + C 2 $ d r V 1 X X + 5 W > j . + C V $ d r V 8 = 8 O Q W 2 d . + ! 2 $ d y , a < 8 + + W > ~ . + C e ",
"d , e C O 1 e > > e , k 8 + e ^ 6 , > C + 1 e 2 I > > / 8 : > ( $ , ) C O 1 e > > e # k 8 + e ! 6 , > W + _ t 2 0 > # k 8 1 > C ",
"X r 1 e 9 I 1 k d r 1 > A a 9 > ` 6 1 e 9 > 1 k d r 1 9 > ! 9 e 8 6 1 e 9 e 1 r Y ; 1 9 2 1 t > 8 $ 1 ' 9 g 1 r d r 1 t > a 9 e ",
"] X + > C [ 1 , ~ u + 2 3 ; O { O p O 9 C + 1 4 d } + 2 3 ; + 1 O X + 9 C 1 C 4 d v + 2 d c 8 W O X X 9 C 1 1 4 d u + 2 3 ; + { ",
"; u $ 2 e | > y d  . ...d X 1 4 $ u $ > e F e y d $ . . d X 1 4 $ u k 2 > t > y d $ o . d p 1 X.$ u $ 0 e t > y d ; ; o.d X 1 V ",
"% % . 8 1 > s , 0 h X $ O.N E d   % . 8 a > @ , 0 , X $ , N E d   % ..+ a > 9 , 0 4 X o , W E 3   % . + a I 9 , 0 , X $ h N 4 3 ",
"    . X ; $ ( k k k O : @ # 3 +.    . X ; & ( k k k O : @ # 3 ..% * o X ; $ 8 k $ $ O + @ # 3 .     . X ; $ ( k k $ O O 9 # 3 . ",
".   . + + X + > , $ < 1 2 3 d 4 &   . + 8 X + > , $ X 1 S 3 d 4 $   ; O 8 X + 2 , $ X 1 2 3 d 4 $   ; + + < + > , $ X 1 2 3 d 2 ",
"@.#.a 9 > + _ # y < 1 9 3 % X a X $ 8 9 > a C # r X ] > r % = 1 X $ a 9 2 + 1 # r < + > 3 % X 1 v $ a 9 2 + 1 # $.u + > 3 % < [ ",
"d 7 %.I k d # 3 . O 1 , . . + 2 r 7 g , z d # 3 . O 1 &.. . + 2 k *.t 0 k $ # 3 . O 1 , . . + 9 k =.t > k $ 0 3 . q _ , . . + e ",
"% $ l + 8 3 7 z X -.2 $.o p + , d $ + + v d ;.$ X + 2 y d X + , d $ + + 8 3 ;.$ < W V y d X + , d $ + 1 a d 7 $ 8 1 2 :.. X + 2 ",
"< + 8 1 , 3 d o > >.9 , + -.1 k v + + 1 , d d d > N 9 , + O + k v + _ 1 , 3 d . > C 2 , + + + k v + l 1 # 3 d $ > C 9 , + O + k ",
"$ , 9 > r 8 4 y J 9 > y X + > ,./ , F 2 r 8 Z y # 9 2 y p + > 7 k , t ' r 8 4 y J 2 > :.p + > f k V t 2 k X R k , 9 > G X + > # ",
"% & + + 1 1 N # o d x 0 $ < 1 $ * $ + + + i N , d d # # $ u + $   & + + + i N # o d , 0 $ 8 + $   & + + 5 i N 0 3 d # # $ < 5 $ ",
"; p O 8 2 > > > B ; P ) d $ + a c X X a S # > 2 B ; <.> . $ + 8 c X -.8 2 > > S B ; <.2 d $ + 8 $ X O 8 2 > e > B ; P I d $ + + ",
"X O X $ $ $ k + O O 1 , 3 Z s s 8 X X k 6 $ $ + + X 1 , 3 4 - 9 8 ( X & k $ $ 8 O + [ , 3 4 1.9 8 X X k ; $ $ + O O 1 , 3 4 9 F ",
"..$ r 2 8 X + + : W 9 / . + C 2 $ $ y A a X 8 + O 1 V d L + 2.2 $ d k X.8 < + + + W > ~ . X C 2 $ d k E 8 = + + + C > d ; + ! e ",
"d , > C + 1 e 9 > > # / + : 9 ! $ 3.4.1 5.1 e > > > 0 k X + ) 1 $ , > H + 1 e > > > # k 8 + e 6.$ , 9 C 8 1 e > 0 9 ) k 8 + > C ",
"X 6 1 e 9 I + B d 6 + 9 S 1 9 Z 7.. P 8.9.> C B d 6 1 > E 6.9 > + 6 C h 9 e 0.y d 6 [ t 2 1 9 ) 8 6 1 ' 9 I 1 B 3 L 1 9 2 a 9 > ",
"O X + 9 C : _ 4 & u l > d L X q.7.w.e.r.t.v 1 X.d < + > d ; + + O < + 9 y.+ C u.d u + 2 3 ; + W O X + 9 C 1 1 R d u : 2 d ; l N ",
". u $ 2 e t > y d $ d . d X v i.$ u k p.8.a., y d d ... . X + 4 & u $ > Z 4 9 k d d c ..d s.a E r < & V e t > y d $ . . d d.1 2 ",
"  % o.+ 1 > 9 4 0 , X $ 7 N f.~   % . q.q.g.4 , 0 4.s.. h.a u.d   % . v e.p.4 j.j.k.l.$ z.a h.d   % . 1 1 > t , 0 , 8 $ , N 4 d ",
"  * . X ; $ 8 k 3 n O + @ # d %   x.. u % d q c.3 k u u Z j.d . x.  % s.; $ s.k d r u v 2 p.....     .= v.$ ( k 3 $ O + @ x 3   ",
".   ; + ( q + > , $ X C 2 k . b..   . q.n.w.+ > , $ X 1 4 3 d 4 $   . 8 + d.+ 2 , $ O 1 m.d d 4 $   ; + ( q + > , $ X 1 2 3 d # ",
"v ; a @ > + 1 , M.X + > / % O v n.N.n.B.V.8 1 # r X i > y % X 1 X $ 8 t > + 1 # r X + t k % O 1 X  .8 9 > + 1 0 $.p + > 3 % C.1 ",
"d , t > k $ # 3 . O 1 h . . 1 > 3 Z.4.D k . # 3 . A.1 , . . l 2 k , t 2 $ $ # 3 . q 1 , o.. + > k f 9 > k $ # 3 . O _ , . c + S.",
"% $ O O d.3 7 $ = + 2 y . = + , & $ + i p j 7 o X + 2 y . X + , ~ $ 1 + v 3 7 & d.+ e y . X + # d $ + + X d m.d l 1 > y . 8 : 2 ",
"X + 8 [ , 3 d m e W 9 , + O + B v 8 + 1 , 3 d d 2 C h , + O i B v 1 + 1 , $ d d > N 9 , + O + B v + + + , 3 . ~ > W 9 , 8 ] : z ",
"6 7 t 2 & X 4 k > 9 > G p + D.7 k , t 2 Y 8 4 y 7 2 > G = + > 7 k O.t 2 & X Z y 0 9 9 y X + > 7 z , t 2 & X 4 y , 9 > y X + > # ",
"  d 1 + l 8 N 0 3 d 0 # $ < + $   $ + i + + H 0 d . # # $ u + k   d : + F.+ N V / d # # $ < 5 ;   $ + + + + N 0 j d # # $ < + $ ",
"; X O + 2 # # ) B ; P > 3 $ + O ; X + 8 2 # 0 S 6 v.P > . $ + X ; X O ( 2 # > > L c P > d ; + O ; X X 8 V # e > B ; P > 3 $ + 8 ",
"p O O k b d o 5 O O 1 , 3 4 9 9 ( O X k 3 ~ $ O A.O 1 , 3 Z 9 9 8 O O k / & $ + O X i , 3 D 9 > 8 O X k 3 d $ + O O _ ,.3 2 9 1.",
". $ G.E 8 X 8 + + W 2 d . + C 2 $ d k E 8 < + + + W > 3 . + C 2 ; d y E 8 X + O + W E & . + C 2 ; d y E 8 X + X l W > d . + C > ",
"d m.I C O 1 e > 2 e # k + + H.w $ ;.I C O 1 e > > ) 0 k X + e a $ 7 # C l w D.> > > # n 8 i e ! $ , I C l 1 e > > > # / ( Q > C ",
"-.B 1 e 9 > 1 r d & 1 > 2 a 9 I X 6 1 2 > > 1 k d J.1 I 2 a 9 > 8 6 1 e t > 1 r d ; 1 > E a 9 2 8 6 1 e - > 1 k d K.1 > 2 L.P.e ",
"O < + 9 C 1 1 , d u + 2 3 c + 1 O = X 9 C a 1 R d u + 2 3 c + C X X + 9 C 1 1 4 d u + 2 o ; + W O X + 9 C 1 1 4 ..I.+ 2 3 c + U.",
"; u $ 2 e e > k 3 6 d . d = Y.E $ u $ 2 S.t > y d $ d o.d X 1 E $ u $ 2 e t 2 y +.& . T.d X 1 R.$ s.$ S e t 2 y r $ . o.d X + 2 ",
"  % . + 1 > 9 , , O.X o , N E d   % % + i > 9 , O., X o A N E 3   % . + 1 9 > , , , X $ , N E.d x.% . + 1 9 0 , &., d.$ , N 4 d ",
"    . X L $ ( y k 3 -.+ W.# 3 ..x.* . X c k 8 k z $ ] + 1.# 3 ..    . X L o 8 k k o ] 8 @ # 3 .   * . X o $ 8 k k $ q + @ # 3 ..",
".   $ + 1 X : > , & = 1 2 3 Q.Z $   ; + + O + > , $ X 1 S 3 d 4 o   ; + 8 X O > # $ X 1 2 r o 4 &   ; + + X l > , $ X 1 2 3 o , ",
"v 6 6.9 > + 1 # y < + > j % X + u $ a s > + 1 , M.X : > r % = 1 v ; a 9 > + 1 # r < W > 3 % X 1 v $ !.9 0 + 1 # y X + > 3 v.= C ",
"d , t > k $ # 3 . O 1 , . . a > k =.t > k o # 3 . O 1 , o.. + 2 k =.t > k $ ~.3 . O 1 , . . + > k *.t , 3 d # 3 . O 1 , . o.+ e ",
"% $ + + 8 3 7 $ X + 2 y 3 X 8 , d $ + + p 3 f d X + E y . X + , d $ + + 8 3 7 $ X + > y d X + , d $ + : X d V 3 X + 2 y d X + V ",
"X l + a , 3 d d > C 2 , + ] + B !.1 + + V 3 & . > C 9 , + -.1 k !.+ + a , 3 d & > N 9 , + O 1 k v 8 8 i , d m & > H 9 , + q + k ",
"$ , t 2 r + 4 y , 2 > G X + 9 7 k , t 2 & ` 4 y , 9 > y X + > 7 k , t 2 r O Z y 4 9 9 y X 1 e 7 / , t E k X Z k , t > y X + > # ",
"  & : + + + H 2 d d # , $ < + $ % & + 8 + + H 0 3 d # # $ < + & * & ( + + i N # 3 3 # , $ < + $   & + + : i N , r 3 # , $ < + & ",
"; X O 8 2 # > 2 6  .P > d $ + 8 c X O + E # > > 6 ; P ) d $ + X ; p O 8 2 # > 0 6 $ G > d o + 8 c X O 8 E # > 0 6 ; P > ..$ + a ",
"X O X & $ d 6 8 O O 1 O.3 4 s > 8 X X k d d $ + O O 1 , 3 4 9 9 8 X < k c d B + O O 1 , 3 4 s 9 8 X X k $ d $ + O = 1 4 T V 9 t ",
"..d M.E 8 q 8 O 1 i > 3 . + C 2 $ d k X.( X + + + W > 3 ; + C 2 $ . k A 8 X 8 l + W > ~ ; + C S & d / E 8 X 8 + + W O.d . + C 9 ",
"o , > C + 1 ^.> 2 > # $ ( + e C $ , > C + 1 e > > > /.k 8 + e 1 $ , > C + 1 e > > 9 # k 8 + e ! $ 7 I C + 1 e > > 9 # 3 8 + > C ",
"= 6 1 2 9 e 1 k d 6 1 > E 1 9 > ` 6 C e 9 > a k d 6 1 > V ! t > 8 6 1 e 9 e 1 $.d $ 1 ) 2 1 9 > 8 6 C D.P.e a k d 6 1 2 4 ! @ ^.",
"O X 8 9 C + + 4 d < + 2 o  .l W + X O 9 C 8 1 , d u + 2 d ; + W + = + > H + 1 , d u + 2 d ; + W + X O 9 C + 1 , d u 5 2 3 ; X W ",
". u k 2 S.9 > y d $ ; c d X 1 4 $ I.& 2 e 9 > y d o . . d X 1 4 & u $ 2 e 9 > y 3 $ $ c $ X 1 4 $ I.$ 2 D.9 > y d $ & ..d X 1 , ",
"  % . + 1 - @ > > > X d , W 2 3   % . + 1 @ @ I > ) X d , W 2 3   % . + 1 W.(.2 > > X d V W 2 j   % . + 0.@ 1.> > > = d , Y., 3 "
};
