/* XPM */
static char *result[] = {
/* columns rows colors chars-per-pixel */
"65 65 215 2 ",
"   c #030205",
".  c #0B0206",
"X  c #060509",
"o  c #0D0409",
"O  c #0C0A0C",
"+  c #0E0807",
"@  c #160703",
"#  c #150905",
"$  c #1A0B05",
"%  c #11070C",
"&  c #130A0D",
"*  c #1B0D09",
"=  c #1E110D",
"-  c #0F0E11",
";  c #140E11",
":  c #180D11",
">  c #151113",
",  c #1A1316",
"<  c #1C1619",
"1  c #1D1A1B",
"2  c #220E06",
"3  c #210F09",
"4  c #251006",
"5  c #2A1307",
"6  c #23120B",
"7  c #2C150A",
"8  c #2F190D",
"9  c #331609",
"0  c #35190B",
"q  c #3B1B0B",
"w  c #221512",
"e  c #261915",
"r  c #2A1B14",
"t  c #26161D",
"y  c #221C1D",
"u  c #291D1B",
"i  c #29171F",
"p  c #341E12",
"a  c #2D221D",
"s  c #27201F",
"d  c #3C2213",
"f  c #35231B",
"g  c #3B241A",
"h  c #251621",
"j  c #231F20",
"k  c #2A1B23",
"l  c #301F27",
"z  c #2E1F32",
"x  c #242122",
"c  c #2B2324",
"v  c #2F282C",
"b  c #332621",
"n  c #332925",
"m  c #32242A",
"M  c #382C27",
"N  c #3C352B",
"B  c #332B37",
"V  c #343132",
"C  c #3D3D3E",
"Z  c #3E3536",
"A  c #421E0C",
"S  c #44210D",
"D  c #4C250E",
"F  c #51270F",
"G  c #53290F",
"H  c #4C2611",
"J  c #4D2913",
"K  c #452A1A",
"L  c #4A2919",
"P  c #442615",
"I  c #562A11",
"U  c #5C2D11",
"Y  c #502D19",
"T  c #58341F",
"R  c #632910",
"E  c #4C3629",
"W  c #563D2E",
"Q  c #433935",
"!  c #443D3A",
"~  c #473B38",
"^  c #402C22",
"/  c #613824",
"(  c #454A25",
")  c #454729",
"_  c #47413D",
"`  c #48423E",
"'  c #5B473B",
"]  c #574235",
"[  c #4F5532",
"{  c #575B3A",
"}  c #312542",
"|  c #35294B",
" . c #342C44",
".. c #36324A",
"X. c #3C355A",
"o. c #372F57",
"O. c #3B3463",
"+. c #4B3F46",
"@. c #40395B",
"#. c #3F4042",
"$. c #4A4542",
"%. c #4D4845",
"&. c #4F4A4C",
"*. c #4B4347",
"=. c #544D4A",
"-. c #564946",
";. c #56544B",
":. c #525254",
">. c #5B5757",
",. c #4D4C51",
"<. c #645C56",
"1. c #705B50",
"2. c #695346",
"3. c #646B4E",
"4. c #65625D",
"5. c #6A625D",
"6. c #6A6B55",
"7. c #77675B",
"8. c #6E765A",
"9. c #494268",
"0. c #59566C",
"q. c #625E62",
"w. c #6E6D6C",
"e. c #696865",
"r. c #706E6A",
"t. c #716965",
"y. c #757567",
"u. c #6B6F70",
"i. c #6D7275",
"p. c #727373",
"a. c #7C7D7D",
"s. c #777977",
"d. c #8E3E19",
"f. c #964118",
"g. c #864321",
"h. c #9C5F42",
"j. c #867D78",
"k. c #8D796D",
"l. c #888577",
"z. c #89917B",
"x. c #87917B",
"c. c #93867F",
"v. c #747580",
"b. c #7E8584",
"n. c #7D8099",
"m. c #848482",
"M. c #8E8982",
"N. c #8C8C8C",
"B. c #898787",
"V. c #948C85",
"C. c #968F89",
"Z. c #969689",
"A. c #8E9492",
"S. c #929693",
"D. c #9D9E9C",
"F. c #9A9995",
"G. c #909091",
"H. c #A29E99",
"J. c #A49C96",
"K. c #9DA397",
"L. c #A3A799",
"P. c #888AA6",
"I. c #8D90AE",
"U. c #9D9EAF",
"Y. c #9FA5A4",
"T. c #A2A4A3",
"R. c #A4ACAB",
"E. c #ACADAA",
"W. c #ADAAA5",
"Q. c #B1AEAA",
"!. c #ACB1AE",
"~. c #B2BCB4",
"^. c #B4BCBB",
"/. c #BABEBC",
"(. c #B8B8B4",
"). c #ABB3B1",
"_. c #BCC1B5",
"`. c #BCC4BD",
"'. c #B7C4B9",
"]. c #C4C1BE",
"[. c #BBC3C1",
"{. c #BDCAC3",
"}. c #B8C2D5",
"|. c #C2C5C4",
" X c #C4CBCA",
".X c #CCCDCC",
"XX c #C8C9C6",
"oX c #C7D1CC",
"OX c #D1D1CE",
"+X c #CBD5D4",
"@X c #D5DDDC",
"#X c #DADEDC",
"$X c #D2D6D4",
"%X c #D7E0DD",
"&X c #D5E3E2",
"*X c #DEEBEB",
"=X c #DCE4E3",
"-X c #DFEFF1",
";X c #DFF0F1",
":X c #E4ECEC",
">X c #EBEDED",
",X c #E3F0EF",
"<X c #ECF1EF",
"1X c #E5F5F5",
"2X c #EAF6F6",
"3X c #E6F8F7",
"4X c #ECF8F7",
"5X c #E6F7F8",
"6X c #EBF7F8",
"7X c #E7F8F8",
"8X c #ECFBFB",
"9X c #F2F6F5",
"0X c #F3FCFC",
"qX c #FBFEFE",
"wX c #E2ECF0",
/* pixels */
"qXqXqXqXqXqXqX8X8X1X2XqXqXqXqXqX0XqXqXqX0XqXqXqX8X8X1X2XqXqXqXqXqXqXqXqX0XqXqXqXqX8X8X1X1XqXqXqXqXqXqXqXqXqXqXqXqXqX8X8X1X1XqXqXqX",
"8X8X8X7X2X8XqX8X8X6XqXqX7XqXqXqX8X8X8X8X6X7X8XqX8X8X7XqXqX6XqXqXqX8X8X8X8X8X2X8X0X8X8X7XqXqX6XqXqXqX8X8X8X8X7X7X0X0X8X8X6XqXqX2X1X",
"1X8X8X7X6X0X8X8X6XqXqX0X8X0XqXqX7X1X6X8X7X9XqX8X8X2XqXqX8X8X8XqX0X7X1X7X8X6X8XqX0X8X7XqXqX0X8X8XqX8X6X7X6X8X7X7X0X8X8X7XqXqX0X8X8X",
"0XqX8X8XqXqX8X6X7XqXqX8X7XqX7X1X1X8XqX2X8XqX0X8X6X4XqXqX8X5XqX5X7X1X0XqX6X4XqX0X8X8X4XqXqX8X7XqX6X1X1X0XqX8X9XqXqX8X8X6XqXqX8X7X1X",
"8XqX4X9XqX8X8X6XqXqX0X8X1XqXqX8X8X8XqX0X8XqX8X8X6XqXqX0X8X7XqXqX8X8X8X0X8X9XqX8X8X6XqXqX0X8X1XqXqX8X8X8XqX8X9XqX8X8X5XqXqX0X8X7X1X",
"6X0XqXqX0X8X5X1X6X8X8X8X0X0X8X8X8X6XqX0XqX0X8X6X3X6X0X8X8X0X0X0X8X8X6X0XqXqX0X7X5X1X6X8X8X8X0X0X8X8X8X6X0X0XqX0X8X6X1X6X8X8X8X0XqX",
"0XqX8X0X8X1X1X2X0X8X8X6X6XqX8X7X7X8X0X8X0X4X1X1X5X0X8X8X7X8XqX6X7X7X8XqX9X0X8X1X1X2X0X8X8X7X8XqX8X7X7X0X0X8XqX9X7X3X6X0X8X8X7X6X1X",
"8X8X8X6X9X0X4X2X8XqX8X6X0XqX0X8X8X0X8X8X6X9X9X4X*X X/.^.^./.[./.^.^.^.[.&X1X9X0X8X2X8X0X8X8XqXqXqX7X8X8X0X6X7X8X0X8X2X8XqX8X8X0XqX",
"6X1X7X7X8XqX0X8X6XqXqX8X0XqXqX8X8X8X7X1X1X2X0X9XoXr._ _ $.;.;.%.%.` _ ;.R.&X2X0XqX4X4XqXqX8X0XqXqX8X8X6X7X2X7X8XqXqX6X6XqXqX8X8X8X",
"0X0X0X8X8X0XqX8X2XqX8X7X7X0X8X8X0X0X0X0X8X+XK.m.w.n # * = w = e , = $ , ;.a.N./.2X7X4XqX8X7X7X0X8X8X0X0X0X0X8X0X0X0X6X2XqX8X6X7X1X",
"0X0X0X8X8X8X8X6X0X0X6X7X1X0XqX0X8X0X0X6X@XS._ a e = * = = 6 e = w 6 * * w u n w.{.*X9XqX7X7X1X0XqX0X8X0XqX0X8X8X8X8X6XqX0X8X7X3X1X",
"8X8X8X7X8X8X7X6XqX0X8X7X7XqX0X8X8X8X8X%XN.` w @ $ * = * $ = = = $ * * * $ # * n w.^.0XqX8X7X8XqX0X8X6X8X8X7X6X7X7X7X6XqX0X8X7X7X8X",
"8X7X7X8X6X8X2X6X0X8X8X1X6X0X8X6X1X1X+XA.Q $ @ @ # * * @ $ * 6 = * # $ * $ # @ @ u r./.1X8X1X8X0X8X6X7X8X7X7X6X4X9X8X7X8X8X8X1X7X1X",
"7X3X8X8XqXqX0X8X1X8X8X7X7X8XqX8X1X1XA.Q 6 @ @ @ @ $ $ $ = 6 e 6 6 $ $ * @ @ @ @ * a e.%X0X1X7X8XqX8X1X7X7X7X8XqXqX0X6X1X8X0X7X7X6X",
"7X7X6X6X9XqX0X0X0XqXqX8X8X8X8X0X1X1Xm.c # # @ @ $ 4 5 5 5 8 8 8 8 5 5 5 2 @ @ @ @ * =.%XqX8X8X0X8X0X1X7X7X6X7X0XqX0X8X0XqX0X8X7X1X",
"7X1X3X6X0X0XqXqXqX0X8X8X8XqXqXqX*X[.e.r @ # @ $ 4 q A A S S S S A A S q 5 2 @ @ @ * ~ Q.&X7X6XqXqXqX6X7X1X1X4X0X0XqXqXqX0X8X8X6XqX",
"8X8X6X6X6X3X8X0X0X1X3X4XqXqXqX9X].<.a * @ @ $ 5 q G G I I I U I U I I G S 5 * $ @ # w ! N.:XqXqXqXqXqX8X8X6X7X1X2X8X8X0X7X7X4XqXqX",
"0XqX8X0X0XqXqX8X8X1X4XqXqXqXqX/.s.c @ @ @ $ 2 q D I U U U U U U U U U U G S 5 $ @ # # 6 =.L.:XqXqXqX8XqXqX0X0XqXqXqX8X8X1X8XqXqX7X",
"8X8X8X8X6X8X0X8X6X8XqXqX4X9X#X<.r u w $ @ 4 9 A G D G G U U U U U G G G G S 0 5 $ @ = a u b ).:XqXqX8X8X8X8X5X2X6XqX8X8X8XqXqX1X7X",
"7X8X8X6X0X0X8X8X4XqXqX8X8X`.;.u Q A.e.r 4 4 $ @ $ $ $ * S U U U G 5 * $ $ $ $ * 5 5 ~ F.t.= _ N.2X8X7X6X8X8X2X8X0X8X8X6XqXqX8X8X3X",
"0XqX8X9XqXqX8X8X6XqXqX8X1XE.w @ %.oXM.f 7 9 4 $ $ # + $ S U U U G 4 # # # $ $ 5 9 7 ;.OXN.# $ 5.:X1X1X0XqX4X9XqXqX8X6X8XqXqX8X1X;X",
"8XqX9X0X0X8X8X6XqXqX8X8X1XQ.e $ ;. Xm.f 7 S G G J d 0 d J G U U I d p d H G I D 0 7 =. XA.* $ 4.<X8X8X8XqX0X0XqX8X6X6XqXqX0X8X3XqX",
"5X0XqXqX8X7X7X1X7X8X0X8X0XE.a p.A.e.V - + $ * 4 = * # $ * 4 * 4 = # # $ = 4 6 * # # j :.b.S.n 4.;X8X8X1X0XqXqX4X7X7X1X7X8X8X8XqX7X",
"0XqX6X0X9X1X1X7XqX8X8X1X1XW.a T.[.:.1 X         X     X           X X X     X       - ..S.+XQ 4.*X1X5X0X8X8X9X0X1X7X6XqX8X8X1X1X0X",
"6X8X8X7X0XqX4X1X4XqX8X8XqXQ.a R.-X&Xi.1       - , O O < +           - , - O > -   X #. X-X%X_ 4.2X8X8X8X8X7X7X0XqX8X1X4XqX8X8XqX0X",
"7X1X3X1X0XqXqX4X4XqXqX8X8XQ.c !.+XF.$.-   X + > - - - -   X 7 $   - - - - - - O     c l.].&X_ 4.,X8X8X7X7X1X1X0XqXqX8X2XqXqX8X8X1X",
"qXqXqX8X8X8X0X8X6XqX6X5X1XR.c F.L.2.s + X & , O O > >   X 4 J 7 # , - X - - O   X + = E V.oXZ 4.1X0XqXqXqX0X8X8X8X8X8X2XqX6X7X3X1X",
"8X8X0X8X8X8X7X4XqXqX8X7X1XE.e N Q d 7 4 5 = + X   X X   7 D J D d * +   O X   # 4 4 5 g 7.K.f 4.<XqX8X8X0X8X8X8X8X8X8XqXqX8X7X1X8X",
"8X8X7X7X7X7X3X7XqX8X8X7X7X.Xr.M M 6.' p q 9 5 6 6 4 4 5 0 q 9 q q 9 2 5 4 6 4 8 0 d E 1.6.4.e.T.:X3X6X8X8X8X7X1X7X5X6XqX8X8X7X8X1X",
"7X7X6X8X0X0X8X6X6X7X8X1X6X2X$X5.>.(.l.W q A D D G G G S 9 4 4 2 2 A D F G G G D d _ r.K.s.$.~.*X0X6X7X7X7X7X8X0XqX8X7X6X7X8X1X7X7X",
"7X7X8X8X0XqX0X7X5X0X0X8X8X0X0X[.^.:X.XF.' q D J U U D 0 q S q 0 7 A A A A R f.g.-.c.`.#X|.R.*X8X0X8X3X7X6X8X6X0XqX8X7X7X0X0X7X7X6X",
"7X7X7X8X0XqX0XqXqXqX0X8XqXqX0X8X2X4X4X$XC.' P D G I S * S G S S A 9 9 A q F f.h.V.XX9X0X9X1X7X0X0X0X1X3X7X3X8X0XqXqXqX0XqX0X8X7X4X",
"7X1X1X2X9X0X8XqX0X0X8X8XqXqXqXqX0X8XqX,X$XC.W P Y I A 2 A F 5 q A 5 9 H L Y / k..X2XqX0X8X8X0XqXqXqX0X6X1X1X1X4X9X0XqXqX8X8X6X0XqX",
"0X0X6X8X0X8X0X8X0X1X6XqXqXqXqXqX0XqXqX8X8XOXJ.V.k.] q 4 7 9 @ 5 9 2 9 L 1.V.C.].2XqX0X1X4XqXqXqXqXqX8X0X0X8X8X0X0X8X8X8X1X6X0XqX0X",
"0X0X0X8X4X0XqX8X6X1X8XqXqXqXqXqXqXqXqX8X0X<X:X+XD.' 0 0 5 5 2 2 5 9 q ^ j.].#X<X0X8X8X2X0XqX9XqXqXqX0XqXqX8X8X9X0XqX8X8X1X4XqX9X1X",
"8X8X8X2X2X0X0X8X3X0XqXqXqXqXqXqXqX8X0X0X5X5X=XY.,.v g D S A S S A D A l +.v.|.9X0X8X5X0XqXqX8XqXqX0X8X8X8X8X6X4X9X0X8X7X0XqXqX6X3X",
"6X8X8X6X0XqX8X8X2XqXqX8X8XqX0X0X4X0X0X8X4X@XT.:.> , u L L L U Y L L f e O B a. X7X8X7XqXqX8X7X8XqX6X7X6X8X8X4X0XqX8X6X2XqXqX8X8X1X",
"0XqX8X0XqX0X8X7X0XqXqX8X1XqX0X6X6X0XqX2X=XD.+.: . o * s c f I g b k , % . % c p.oX-X8XqXqX8X1XqX8X7X7X0XqX8X9XqX8X8X6X0XqX0X8X1X8X",
"8X0X9X0X0X8X7X6XqXqX8X8X6XqXqX8X8X8X9X#XF.:.x ; . o O : j h 7 u y < & % . % 1 ..s.[.8XqX8X8X6XqXqX8X8X8XqX0X0X0X8X8X6X0XqX8X8X7X0X",
"4X0XqXqX8X7X7X1X7X8X8X8X0X0X8X8X8X6X%XE.&., 1 : o o o ; , , o : < : % . . # 1 1 V v. X7X8X8XqX0X8X8X8X6X0X0XqX9X7X7X2X8X8X8X8X0X6X",
"0X0X8X8X0X2X1X2X0X8X8X7X8XqX8X1X5X8XS.+.j 1 - o o o & y > % . o & 1 , o . o % > j v e.=X8X7X8XqX6X7X7X0X0X6X4X0X3X1X2XqX8X8X7X6XqX",
"8X8X8X1X4XqX0X2X2XqX0X8XqXqXqX8X8X6Xb.x ; ; O % : O % > < : o ; , < : O & ; O & : > ,.%X0X8XqXqXqX8X8X8X8X8X1X8XqX0X1X4XqX0X8XqX7X",
"6X1X2X5X8XqX0X0X2XqX0X8X8XqX0X8X6X@Xi.y o o % , y ; X o 1 j o , x & o % 1 t ; o o ; +.XX2X6X8XqX8X0X8X6X7X1X7X6XqXqX8X2XqX0X8X8X1X",
"qXqXqX0X8X8X8X2X7XqX7X7X1X8X8X0XOX7.b : , , : : x x > o 1 x O < x ; : 1 x < ; : 1 : w -.H.1X7X8X8X8XqXqXqXqXqX8X8X8X8X4XqX7X7X;X7X",
"8X8X8X8X8X8X8X6XqXqX8X8X1XqXqXqX].] 9 7 f u , > < 1 < > < , o ; < > > y < , > u f r 7 M V.8X5XqXqXqX6X8X8X8X8X8X8X6X6XqXqX8X8X;X7X",
"8X8X7X3X7X5X1X6XqX8X8X;X8XqX2X5X[.] A I U K u , o . ; x : . . o O j 1 % o & e g I U G L M.1X8XqX6X1X8X8X8X7X7X1X1X1X7XqX8X8X7X8X5X",
"7X1X6X0XqXqX0X7X3X7X8X1X1X8XqX8X`.] D G D g a > O < < ; < 1 . : 1 > > 1 : ; y f S G G L M.1X1X8XqX8X3X1X7X7X8XqXqX8X8X5X7X8X1X7X6X",
"7X8X8X7X0XqX8X8X6XqXqX8X8X8X0X0XoXy.W Y A p u , O , 1 ; < 1 ; < 1 : , 1 & : < u q H E 1.W.8X8X8X8X8X1X7X8X8X6X0XqX0X7X7XqX0X8X8X1X",
"7X1X1X6X0XqXqXqX0XqX0X8X3XqX8XqX1X+Xl.E 0 p s , o O > y : ; j , ; 1 < & o : h u q H 2.XX1X8X6XqX0XqX6X5X1X7X8XqXqXqXqXqXqX8X8X7XqX",
"8X7X1X7X2X2X8XqXqX7X4X2XqXqXqXqX8X8X XH.Z.e.v < < < 1 > < < > < < , , < < < y &.N.J.(.*X7X6XqXqXqXqX8X8X1X1X2X2X2X6XqXqX7X8X7XqXqX",
"0XqX8X8XqX0XqX8X8X1X2X0XqXqXqXqX0X0X9X:X:XD.V > j 1 , o , 1 : , 1 O : 1 1 < 1 w.@X:X,X1X6X0XqXqXqXqX8XqXqX8X0X0X0X8X8X8X1X2X0XqX7X",
"8X0X8X8X6X8XqX8X6X7X0XqX0XqXqXqX0X8X0X8X4XT.V o O & o . O : j , O o o O & O > p.:X8X8X2X0XqX8XqXqXqX0X8X0X8X6X8X0XqX8X8X2X0XqX0X8X",
"7X8X8X6X8X0X8X8X6X0XqX0X8X0XqX0X6X6X8X8X6XU.Q & & & % % : m v.&.t % % % % & t s.*X8X7X0XqX0X8X0XqXqX6X7X8X8X6X4X0X8X8X7X9XqX0X6X;X",
"8X0X4X4X0XqX8X8X4XqXqX8X6XqX8X7X5X4X0X8X4X(.>.l t : , , h +.+Xj.c t t : , i Z N.*X8X4XqXqX0X3XqX0X6X1X8XqX8X9X9XqX8X8X2XqXqX8X7X2X",
"0XqX6X0XqX0X8X6X0XqXqX8X1XqXqX7X8X8XqX4X9X=XR.0.k t i t i +.>XB.m t t t t +.B. X1X7X9XqX0X8X1XqX0X8X7X0XqX4X0XqX8X8X6XqXqXqX8X7XqX",
"8XqX0X0X0X7X7X6X0X0X8X8X8XqX0X8X8X6X0X0XqXqX&XB.l i t t k -.:XN.m t t t t =.S.'._.~._._.'.'.:X0X0X8X8X8X0X0X0X0X8X8X2X8X0X8X8X8X5X",
"8XqX0X0X9X1X7X2X4X8X8X8X0XqX7X7X8X8X0X0XqX8X@XB.l h h h k *.@Xm.m h y h h V ;.3.3.3.3.3.3.y.].<X6X7X6X8X0XqX0X0X7X1X1X4X8X8X8X8XqX",
"0X8X6X8X0X0X7X2X0X0X8X7X8XqX0X7X7X0X8X8X4X9X=XB.B } | | z Q L.4.l } | | z n ) ( ( ( ( ( ( [ x.].1X7X8X0X8X6X4X8X8X3X2X0XqX8X6X8X8X",
"6X7X6X3X8XqX0X7X6XqX0X8XqXqXqX8X8X8X8X7X5X0X:XG. .o.O.O.} B 3.$.B o.O.O.| V E ( ( ( ( ( { 8.8.L.9X8X8X8X8X7X7X0XqX0X2X4XqX0X8XqX;X",
"8X8X4X6X8XqXqX8X7XqX0X6X8XqX8X8X0X8X8X6X6X8X:XU.9...B  .O.0.y.q.9.|  . .X.9.[ [ [ [ [ { z.oX].%X8X0X0X8X8X6X6X8XqX0X8X4XqX8X8X6X1X",
"qXqXqX8X8X8X8X7X8XqX7X7X1X8X0X0X0XqX0XqX8X8X;X}.P.v.w.i.n.I.Y.U.P.s.u.i.n.P.A.x.x.x.z.Z.'.7X3X8X0X0X0XqXqXqX8X8X8X8X7X0XqX7X1X;X8X",
"8X8X8X8X8X6X8X6XqX0X8X8X7XqXqX0X7X8X8X8X8X8X7X1XwX<X<XwX;X;X4X2X1X-X,X,X1X-X,X,X-X:X9X2X7X7X6XqXqX0X6X8X8X8X8X8X8X7X4XqXqX8X7X7X1X",
"8X8X7X7X7X2X7X6X0X8X8X;X8XqX6X1X7X8X8X7X7X6X6X5X6XqX8X8X;X8XqX6X5X8X7X8X3X2X3X3X7X6X0X8X8X5X8X0X6X1X7X8X7X7X2X7X7X2X6X0X8X8X3X8X8X",
"1X7X8X8XqXqX0X8X3X6X8X1X5X8XqX8X5X1X1X8X0XqXqX0X5X5X6X8X1X5X8XqX8X5X3X3X7X4XqXqX0X7X7X6X8X1X7X8XqX8X3X7X3X6X0XqXqX0X7X7X6X8X1X5X2X",
"7X8X8X7X0XqX8X8X8XqXqX8X8X8X8X0X7X7X8X8X8X0XqX8X8X8XqXqX8X8X8X8X8X6X8X8X8X7X0XqX8X8X8XqXqX8X8X8X8X8X7X6X8X8X8X8XqX8X8X8XqXqX8X8XqX"
};
