/* XPM */
static char *result[] = {
/* columns rows colors chars-per-pixel */
"64 64 212 2 ",
"   c #54463F",
".  c #386E51",
"X  c #554641",
"o  c #564942",
"O  c #594C46",
"+  c #5B4E49",
"@  c #4C5E41",
"#  c #4A5747",
"$  c #5E524C",
"%  c #555746",
"&  c #60544E",
"*  c #635652",
"=  c #645954",
"-  c #695C56",
";  c #675D5B",
":  c #6A5E5B",
">  c #4D614E",
",  c #516449",
"<  c #57674B",
"1  c #596D55",
"2  c #5A6D59",
"3  c #546959",
"4  c #5D745C",
"5  c #5D7157",
"6  c #696D54",
"7  c #6D625D",
"8  c #656954",
"9  c #71635F",
"0  c #62735A",
"q  c #67765A",
"w  c #626A4F",
"e  c #597165",
"r  c #6E6463",
"t  c #6E6868",
"y  c #716663",
"u  c #746A66",
"i  c #756C6C",
"p  c #796E6D",
"a  c #736668",
"s  c #687A67",
"d  c #7A716E",
"f  c #727C66",
"g  c #7D7574",
"h  c #7D7975",
"j  c #807573",
"k  c #807976",
"l  c #847C7C",
"z  c #887F7D",
"x  c #827778",
"c  c #1D965C",
"v  c #1F9859",
"b  c #17935C",
"n  c #1C8F5F",
"m  c #388F46",
"M  c #249E4F",
"N  c #3C9246",
"B  c #3E954B",
"V  c #3B9448",
"C  c #2A8559",
"Z  c #259D53",
"A  c #289F52",
"S  c #209859",
"D  c #2B9F58",
"F  c #3C9451",
"G  c #3B9A51",
"H  c #318A59",
"J  c #2FA646",
"K  c #2DA34B",
"L  c #31A746",
"P  c #32A846",
"I  c #3BAC4A",
"U  c #34AC49",
"Y  c #27A151",
"T  c #2AA052",
"R  c #2CA158",
"E  c #138E66",
"W  c #118D69",
"Q  c #179163",
"!  c #1A9360",
"~  c #2E8861",
"^  c #399368",
"/  c #328C65",
"(  c #40974D",
")  c #41994E",
"_  c #528959",
"`  c #489C53",
"'  c #519956",
"]  c #46854C",
"[  c #648156",
"{  c #43AF57",
"}  c #4CA45A",
"|  c #43AF58",
" . c #4AA459",
".. c #55A65A",
"X. c #47B353",
"o. c #49B454",
"O. c #4DB857",
"+. c #45B058",
"@. c #4FB658",
"#. c #4FB958",
"$. c #50B758",
"%. c #51B858",
"&. c #50B757",
"*. c #5B9B63",
"=. c #439C73",
"-. c #449D6C",
";. c #6D836B",
":. c #698067",
">. c #7C8269",
",. c #70916B",
"<. c #778876",
"1. c #7D9479",
"2. c #6C8474",
"3. c #57A863",
"4. c #5EBE61",
"5. c #5FB264",
"6. c #60BF62",
"7. c #62B468",
"8. c #7BB26E",
"9. c #7EB572",
"0. c #5AC05F",
"q. c #5DC061",
"w. c #74CA6F",
"e. c #73C970",
"r. c #7BCE73",
"t. c #70C770",
"y. c #6FC86E",
"u. c #89827E",
"i. c #84887F",
"p. c #819F6C",
"a. c #88A97D",
"s. c #8DBC7A",
"d. c #81B976",
"f. c #92BE7C",
"g. c #89C57A",
"h. c #86D47B",
"j. c #89D47C",
"k. c #88D87D",
"l. c #867F80",
"z. c #887E80",
"x. c #7F9580",
"c. c #878080",
"v. c #8B8484",
"b. c #8D8A85",
"n. c #8E8788",
"m. c #8E8888",
"M. c #918583",
"N. c #938886",
"B. c #938C8C",
"V. c #998F8D",
"C. c #91878A",
"Z. c #859A83",
"A. c #889785",
"S. c #9B908F",
"D. c #93928E",
"F. c #988E90",
"G. c #978E90",
"H. c #969291",
"J. c #9B9292",
"K. c #9E9B9B",
"L. c #A19696",
"P. c #A39997",
"I. c #A49B9A",
"U. c #A99E9E",
"Y. c #A59698",
"T. c #97A894",
"R. c #90AA90",
"E. c #A4A997",
"W. c #A99FA0",
"Q. c #96ACA0",
"!. c #ABA2A3",
"~. c #A5A4A4",
"^. c #B0A6A6",
"/. c #B4ABAB",
"(. c #B8ADAE",
"). c #B2A7A9",
"_. c #ADB0AD",
"`. c #B6B0AF",
"'. c #B4B3B3",
"]. c #BCB3B3",
"[. c #B9BABA",
"{. c #C2BCBB",
"}. c #95C682",
"|. c #8ECD82",
" X c #A5D392",
".X c #A5E38F",
"XX c #B9C0AC",
"oX c #C2C1BF",
"OX c #BEC2C1",
"+X c #C4CDCB",
"@X c #C9C8C7",
"#X c #CAD4D3",
"$X c #CEDAD8",
"%X c #D3DDDC",
"&X c #D7D6D5",
"*X c #CDD1CF",
"=X c #E1DFDE",
"-X c #D3E0DF",
";X c #E2E1DF",
":X c #D5E0E0",
">X c #DDE9E9",
",X c #DBE5E5",
"<X c #DFF1F0",
"1X c #E2ECEC",
"2X c #E8E8E8",
"3X c #E5F4F5",
"4X c #E9F5F5",
"5X c #EDFEFE",
"6X c #E7F8FA",
"7X c #F2FEFE",
"8X c #FCFEFE",
"9X c #F4F4F3",
/* pixels */
"8X8X8X7X8X8X5X8X8X8X5X5X3X3X8X8X8X8X8X7X8X8X5X8X8X8X5X5X3X,X@X].(.].].@X2X8X7X8X8X8X5X5X3X3X8X8X8X8X8X7X8X8X7X8X8X8X5X5X3X3X8X8X",
"8X8X8X5X5X5X5X3X4X8X7X5X3X8X8X4X8X8X8X6X>X:X:X%X,X2X$X#X+X@X(.^.^.^.!.[.%X1X$X+X+X=X3X5X3X8X8X6X8X8X8X5X5X5X5X3X3X8X5X5X3X8X8X4X",
"5X8X5X3X3X5X6X3X8X5X5X3X8X8X5X5X7X8X5X:X'.~.Q.).{.'.m.d j l B.F.V.V.V.I.[.'.N.d d H.$X3X8X8X5X6X5X8X5X3X3X5X6X3X8X5X5X3X8X8X7X5X",
"8X4X3X3X8X8X3X8X8X5X5X3X8X8X3X%X%X+X$XOXK.v.z.F./.P.7   X * g v.v.u.c.H.^.I.7 O & h OX:X2X2X$X#X9X3X3X3X8X8X3X8X8X5X5X3X8X8X5X3X",
"8X8X5X5X5X8X4X8X5X5X3X8X8X4X&X^.u.z J.I.G.n.c.H./.P.7     * h v.v.v.c.J./.I.9 & u l.J./.{.`.u.D.%X8X5X5X5X8X4X8X5X5X4X7X8X5X5X3X",
"5X5X5X5X3X8X8X8X3X<X#X+X%X#X[.J.j u d k h l.c.G.E.L.j - + = h n.v.v.v.N.L.u.- * h n.v.H./.P.9 u _.$X:X>X1X7X8X8X3X5X3X3X5X5X5X8X",
"8X4X3X3X8X7X6X8X3X#XH.l J.E.J.J.J.N.a ; t g l.n.B.L.L.M.- & j M.v.v.v.l u 7 O * h v.v.S./.P.9 & y l D.'.2X5X4X8X3X3X3X8X5X5X3X3X",
"8X8X5X5X6X6X6X1X=X/.t = p c.c.V.!.S.: O * t g l.z.F.).I.9 & p z l l z d &   & 9 h v.V.J.L.M.- o & 9 k I.#X3X6X3X8X8X3X3X8X5X5X8X",
"8X5X5X5X3X3X3X$XJ.y $ $ r g l m.F.z -   O - a p l S./.U.9 + r p i p p t + & i k l V.!.L.j = + & u l c.J.`.*X>X3X8X8X8X3X8X8X5X5X",
"5X5X7X7X8X7X1XOXz 8 + + * t h c.c.l i - + O * a g b.T.Z.0 , 1 4 4 4 4 2 $ - x C.F.J.I.N.y & & 9 k v.v.F./.{.@X%X3X5X5X4X8X3X3X3X",
"8X8X8X3X7X,X[.K.I.M.: o O * t g z.C.J.M.: o O = r s *.} B N B ( ( G F ] 1 a l F.E.Y.d y d x h l c.v.v.V./.E.u.D.$X5X3X8X8X5X6X3X",
"8X4X3X3X:X[.H.G.!.J.u - : 7 ; r l F.W.J.q @ @ < f ,...O.#.#.%.o.O.O.#.5.,.<.<.1.T.A.= & p z.c.m.V.V.F.F.Y.M.u k OX1X3X7X5X5X3X6X",
"7X8X5X#XD.h i.m.F.C.l z J.M.7 - h N.V.1.' m N ' d.}.j.h.h.j.h.h.h.h.h.j.}.d.3. ..._ @ + a g i.C.W./.).L.d y p v.(.&X1X3X3X5X3X3X",
"5X5X5X+Xd * p l l l.c.J./.I.s < :.i.A.a.5.O.%.%.r.h.j.h.j.j.j.j.j.j.j.j.j.r.q.O.O...[ 6 0 s b.J.L.I.I.M.9 7 k V.U.[.%X1X7X8X5X6X",
"8X7X7X+Xd & t i i g l.J./.E.' ( G 3.g.}.j.j.j.r.4.&.@.$.&.&.&.&.&.&.%.&.@.%.r.j.h.h.s.8.' *.T.K.j : 7 u d k c.v.N.I.{.&X9X7X5X3X",
"8X9X;X_.t + = ; ; r h v.J.A.} I X.4.r.j.j.j.j.y.X.A A A L A K A K K A K K { e.j.k.k.j.r.q.5.R.Z.0 @ O - k m.v.v.v.B.J.`.%X6X4X8X",
"8X;XP.9 $ O + $ O * a i y 1 B X.w.r.4.O.O.&.%.+.D S v v v v v v v v S v v D { &.%.O.%.4.r.r.5. .N ] 1 a l v.v.v.v.l u b.#X3X8X8X",
"8X&Xk O O % & = 7 9 : ; 6 q ..6.r.w.| K A K K A S S v S v S S S S v v S S Z A K K K K { e.h.%.@.O...s a l v.v.v.l u $ d OX8X8X3X",
"7X&Xh o o $ u u.F.N.- w 8.s.g.r.q.X.D v S v S S A L K A A K A L A K L K A A S S v v v D | 4.r.k.k.9.f i l v.v.l r $ O d *X8X7X5X",
"8X@Xd O $ : k J.W.L.j f d.h.k.w.X.M c ! v S v R +.&.&.&.&.&.&.&.&.&.&.&.&.+.D v v c b v Z { e.j.h.g.1.h l l x i $ O $ l @X9X5X3X",
"8X*Xg + * t l m.G.J.L.R.7.#.#.+.D c b v M K A { t.j.j.j.j.j.j.j.j.j.j.j.j.e.| A A A S b c D { &.O.6.g.a.<.u - $ O $ u B.`.&X1X4X",
"5X#Xg $ 7 i h c.c.V.W.T...J K Y S ! S D { %.&.4.h.j.j.j.h.j.h.h.j.j.j.j.h.r.4.$.&.{ D S ! v A K L o.w.9.f - = * * 7 k F./.@X1X8X",
"8X+Xg $ ; t i g l n.H.x. .K Y ! ! c A { w.j.j.r.%.%.&.&.&.&.%.%.&.&.&.&.O.4.r.j.j.e.{ A c n c Z K I O...< * u x h l z J.^.@X,X3X",
"2XoXh ; ; ; ; r g x h ;.` Y Y v S D { 6.r.j.j.w.{ L L K K A K K K K K A L o.e.j.j.r.6.| D S S Z T K P N , : x C.n.c.v.B.S.(.,X7X",
"~.K.c.i - + + $ * - * 3 H v Y K A { w.r.4.@.&.o.I L Z S v S S S S S c Z A I @.&.@.%.h.e.{ K L A S Y J ( 2 a l v.v.m.v.l u M.$X1X",
"l c.v.l 7 & O X o o # . ~ S K I o.4.h.w.o.L K K K A S ! ! ! ! ! b c ! S A L K K J o.w.r.6.o.I K S c T G _ s h l x h g d y u.@X+X",
"i g u.c.l a &     # . C ! S K O.y.h.%.@.I K Z S S S ! ! n b ! ! c ! ! c S S S Z K I o.6.r.r.X.A c ! c D G _ s a - * & y N.!.[./.",
"; t h c.v.z u y 9 e C b ! R I q.r.w.{ A K D S ! ! ! S S S S S S S S S c b ! n S D K K | e.r.6.{ R c ! v Y F 5 ; = * * u L.(.].E.",
"+ = t g l.B.J.I.Y.A.^ c Y +.e.r.6.{ D v S S ! ! ! S A K K K K K K K K A S ! ! ! S S S D { 6.r.e.+.Z c ! v H > * u h h l C.I./.I.",
"O + * t g n.W.`.].T.=.Y I q.r.w.o.A v n ! ! ! c c D { %.%.%.&.&.%.%.%.{ D c c ! ! ! ! v K o.e.r.q.X.R v ! C > ; x C.v.v.c.B.L.M.",
"o O + & r h m.I.].Q.3.+.e.r.q.I I A M c ! ! ! c Z { e.j.j.j.j.j.j.j.j.w.{ Z c ! ! ! ! S K I o.4.r.e.+.Y c ~ 3 a l M.v.v.v.l i - ",
"O o o + * r p l F.A.} #.|.|.0.J L A S n ! b v D { 6.r.j.j.j.j.j.j.j.j.r.6.{ D S c ! ! S D K L O.j.j.%.K c ~ e p l n.v.u.l u $   ",
"O o o o O $ * * 7 w B O.j.j.%.K Z S c ! c c A { e.r.4.@.$.%.$.%.%.$.&.6.r.y.{ M v n b c c Z K %.j.j.%.A v ~ e i l.n.v.l 7 $ o   ",
"$ & * * = - : - + , ` 4.r.e.@.K S ! ! ! c D { 6.r.w.o.J G L A A K A K X.y.h.6.{ D c c ! ! S K o.e.r.%.{ D H 3 r p h x d y 9 9 7 ",
"; t g g h z J.M.* w 8.r.%.@.I K S ! b S Z { w.r.6.o.I L Z v S S S Z L I o.0.g.y.{ A c c ! S K I X.4.h.e.+.F > * * & * y N.Y.P.N.",
"; u l v.v.V.!.J.j f }.j.#.L K A S ! S D { 4.r.w.X.L K Z c Q ! Q ! c D K L X.w.r.6.{ D S ! S D L J &.j.j.%.N , + * * & u L.).{.E.",
"+ ; k v.b.v.V.J.L.E. Xh.@.K Z v ! S A { e.r.4.o.I L Z ! W W Q Q W W c Z L I X.4.r.e.| A S c c Z K &.j.j.O.( 2 r p h g l M.I./.I.",
"O * d c.v.v.v.V.).]..Xh.@.K v b ! S K %.j.j.$.K K A S E W W S c E W E c A L K @.j.j.%.A S b n S K &.h.h.O.( 4 p z n.v.v.c.F./.I.",
"O & r g u.v.u.S.^.`. Xh.@.K S ! c S K %.j.j.%.K Z ! E W E S A A c E W W c Z K &.h.j.%.K S ! ! c K %.h.h.%.( 4 i z.v.v.v.v.V./.I.",
"o $ ; t d k u.u.S.E. Xh.&.K S ! ! S A %.j.j.%.K S Q W E S R +.+.D c E W ! S K &.j.j.%.K S ! ! S K %.j.h.O.B 2 a g l l l h z V.M.",
"o $ r r * 7 t t 9 >.g.j.%.K S ! ! S L $.j.j.&.A S ! ! c A +.r.e.@.A c E ! S A &.j.j.&.K S ! ! S K &.h.h.%.N , * a i p a ; = 7 = ",
"o + = * + O = * O 6 f.j.%.K S ! ! S A $.j.j.&.K S ! E c A +.e.e.{ D v n ! S K &.j.j.&.K S ! ! S K &.j.h.#.B < = ; ; ; ; 7 7 7 - ",
"o + $ + O o O O   6 f.j.%.K S ! ! S K %.j.j.&.K S E W E c D +.o.D v W E E S A $.j.j.&.K S ! ! S K O.h.h.#.` ;.p = + + 7 M.Y.P.u.",
"* * * - 7 7 r ; O 6 f.j.%.K S ! ! S K %.j.j.$.L Z c E W E c A A c W E W c Z L %.j.j.%.K S ! ! S K %.h.h.O. .<.l r = & a L.(.{.E.",
"h x h l D.I.I.u.= 6 s.j.%.K S ! n S L &.j.j.@.K K A c E W E c c W W E c D L L O.j.j.%.K S ! ! S K %.h.h.O.` <.v.l h x l C.I.(.^.",
"l z.c.G.W././.Y.j >.g.j.O.K D S c c A { e.r.6.X.I K A c E W E ! W E ! Z K I o.6.r.e.{ A S c S Z K %.j.h.O.` 2.c.l u.v.c.x z V.J.",
"p g l.m.V.H.J.J.L.E. Xh.@.J K A S ! v D { 4.r.y.o.L L D c Q n b ! ! A K L o.e.r.6.{ D c ! S D L K @.j.j.O.) s p i h c.l 7 = - y ",
"r t h l.c.u.x z S.T.}.e.4.X.I K S ! n S M { y.h.6.+.I K Z S S S v Z L I o.6.r.e.{ M c c ! S K I X.4.r.e.| F 3 ; ; r d u & + - 7 ",
"t t t g c.l 7 - : q ..q.r.e.o.K S ! ! c c D { 6.r.w.X.L A K K K K K K o.w.r.6.{ R v ! ! b v A o.e.r.%.+.R C > + + & & $ O : M.V.",
"; r r t g u &   X @ V #.k.k.&.K Z S c ! ! c A { w.r.6.&.&.&.&.&.&.&.&.6.r.e.{ Z v ! ! ! v Y V &.j.j.%.K c C 3 * * - 7 - O - M.V.",
"$ * r r - & O   X   V #.j.j.@.J K D S ! ! c c D { 6.r.j.j.j.j.j.j.j.j.r.6.{ D v b ! ! S K K L &.j.j.%.K b / s g j z J.M.- + - 7 ",
"o + = * + + - y 9 0 G I e.r.4.o.I K S b ! ! ! c A { t.j.j.j.j.j.j.j.j.e.{ A v ! ! ! b v K I X.4.r.e.+.Z b / x.n.v.V.W.I.j - +   ",
"o O $ + o = M.U.W.A.-.Z { 4.r.w.o.A Z n ! ! ! c c D { %.%.%.%.$.&.&.&.{ R v c ! ! ! ! S A o.y.r.q.+.R c b ^ <.n.v.n.V.J.I.M.-   ",
"O + & * * i J./.].Q.^ b M { e.r.6.{ A S S S c ! n c A K K K K K K K L A c ! ! ! S S S D { 6.h.y.{ A c b v ^ 2.l c.n.c.V.E.I.j - ",
"o & i g h l B.L.(.Q.=.b c D | 6.r.y.{ A A A S b b c S S S S S S S S S v ! ! ! v D K K | e.r.6.{ D v ! c Y F s g l.n.v.m.F.J.I.M.",
"o = h m.v.v.v.V.W.R.-.v b v K o.y.h.4.@.I L Z S S S ! ! ! ! ! ! ! ! ! c S S S Z K I o.6.r.r.o.K S ! v R +...5 t g c.c.u.x z V.M.",
"o = x m.C.v.v.M.F.x.} Z c v K I o.4.r.e.o.L A K K D S ! c b n n ! ! ! S A T K L L +.w.r.6.o.I A S v M X.w.d.6 * r g c.l 7 = : - ",
"  & u x h g h x x s ` K Z D T K K | e.r.4.%.&.@.I K Z S S S S Z S v S Z L I o.$.$.6.r.w.{ A L A Z M K &.k.R.6 O * r d d r 7 7 = ",
"o O & * * * * * * < ( L L T S v S D { 6.r.j.j.e.o.K A L K K A A A K K K L o.e.j.j.r.6.{ D S S S A L P &.k.g.6 o O $ & a N.Y.P.u.",
"= = * * * - : - + < ' o.I K Z c ! v Z { e.j.j.r.%.&.$.$.$.O.@.@.&.&.&.%.@.4.r.j.j.e.{ M S c c Z K I o.4.r.d.0 $ * * * a L.(.{.E.",
"h k x g h l J.M.- 6 8.w.O.K K Z S ! S D { &.$.4.h.h.j.j.j.j.j.h.h.j.j.j.h.r.4.@.&.+.D v c S A A L +.e.r.q.3.4 r p x x l N.I.(.^.",
"l l l u.c.H.!.V.: w 8.r.q.O.%.X.D S c c A K A | e.j.h.h.h.h.h.h.h.h.h.j.j.t.{ A A A S c v D { @.O.4.r.e.I m 2 t h c.v.v.z.C.J.V.",
"i i i g u.m.V.l - , ` q.r.j.j.e.{ A c c S S S D | $.$.@.$.$.$.$.@.@.%.%.&.{ D v v c c v A { e.h.h.r.4.{ R C > = a g c.v.v.l u y ",
"t r r i l v.v.g 8   m o.h..X.Xh.&.A S ! c b c S A L L L L L L L L L P P P A S ! ! ! ! S K &.h..X.Xh.@.K v C # $ ; a l v.v.j & + "
};
