/* XPM */
static char *result[] = {
/* columns rows colors chars-per-pixel */
"64 64 211 2 ",
"   c #53453F",
".  c #554640",
"X  c #564942",
"o  c #594C46",
"O  c #5B4E49",
"+  c #4C5D44",
"@  c #495C4A",
"#  c #5E524C",
"$  c #525C46",
"%  c #60544E",
"&  c #625652",
"*  c #645954",
"=  c #695C56",
"-  c #665D5B",
";  c #6A5E5A",
":  c #4E6043",
">  c #4C614E",
",  c #55674B",
"<  c #457643",
"1  c #556A59",
"2  c #5C735B",
"3  c #5C7D50",
"4  c #4C6050",
"5  c #62674F",
"6  c #696D54",
"7  c #6E625D",
"8  c #676F57",
"9  c #70635F",
"0  c #61745A",
"q  c #697359",
"w  c #72785F",
"e  c #557966",
"r  c #6D6463",
"t  c #726663",
"y  c #746A66",
"u  c #756C6B",
"i  c #796F6D",
"p  c #697968",
"a  c #7A726E",
"s  c #757B67",
"d  c #7D7574",
"f  c #7D7A77",
"g  c #817573",
"h  c #807977",
"j  c #847C7C",
"k  c #887F7E",
"l  c #1D965C",
"z  c #1F9859",
"x  c #17945D",
"c  c #398F4A",
"v  c #269E4F",
"b  c #3C9346",
"n  c #3B964A",
"m  c #2D8554",
"M  c #2B845C",
"N  c #2F8C59",
"B  c #259D53",
"V  c #299F53",
"C  c #209859",
"Z  c #2B9F58",
"A  c #2D905C",
"S  c #3A9650",
"D  c #2FA645",
"F  c #2CA34C",
"G  c #30A646",
"H  c #3BAC4A",
"J  c #35AC48",
"K  c #2AA052",
"L  c #2BA058",
"P  c #27A251",
"I  c #138E67",
"U  c #118D68",
"Y  c #179163",
"T  c #1A9360",
"R  c #348E64",
"E  c #3B9568",
"W  c #37926B",
"Q  c #41974B",
"!  c #429B4C",
"~  c #528858",
"^  c #439C55",
"/  c #519D53",
"(  c #438045",
")  c #43AF57",
"_  c #43AF58",
"`  c #4BA756",
"'  c #54A25A",
"]  c #56A95E",
"[  c #44B254",
"{  c #4AB454",
"}  c #4FB857",
"|  c #44B158",
" . c #4FB758",
".. c #4FB958",
"X. c #50B758",
"o. c #51B858",
"O. c #54BB5A",
"+. c #408E67",
"@. c #698966",
"#. c #7A826C",
"$. c #7A8470",
"%. c #768C79",
"&. c #729076",
"*. c #58AC62",
"=. c #5EBE61",
"-. c #4EA564",
";. c #60BF62",
":. c #66B26A",
">. c #7AB46D",
",. c #7EB572",
"<. c #7CBE73",
"1. c #61AE66",
"2. c #5DC061",
"3. c #67C366",
"4. c #6FC86F",
"5. c #70C76F",
"6. c #73CA6F",
"7. c #73C970",
"8. c #7BCD74",
"9. c #70C770",
"0. c #85837C",
"q. c #89827E",
"w. c #848D78",
"e. c #86917C",
"r. c #83BA76",
"t. c #91BE7C",
"y. c #87A776",
"u. c #85C27C",
"i. c #92C07E",
"p. c #86D57B",
"a. c #89D47C",
"s. c #89D87D",
"d. c #867F80",
"f. c #887E80",
"g. c #7B9285",
"h. c #878080",
"j. c #8B8484",
"k. c #8E8788",
"l. c #8E8888",
"z. c #8F8A86",
"x. c #918583",
"c. c #938886",
"v. c #948C8C",
"b. c #998E8D",
"n. c #908789",
"m. c #8A9E84",
"M. c #8A9A85",
"N. c #9B918F",
"B. c #94978C",
"V. c #9A8F91",
"C. c #978C90",
"Z. c #969291",
"A. c #9B9292",
"S. c #9E9B99",
"D. c #A19696",
"F. c #A39997",
"G. c #A49A9A",
"H. c #A99E9E",
"J. c #A39798",
"K. c #99B987",
"L. c #9BA591",
"P. c #9CB498",
"I. c #90A391",
"U. c #A6A998",
"Y. c #A2B49E",
"T. c #A99EA0",
"R. c #ABA2A3",
"E. c #A7A8A2",
"W. c #B0A6A6",
"Q. c #B4ABAB",
"!. c #B8AEAF",
"~. c #ADB0AD",
"^. c #B4B5AA",
"/. c #B4B3B3",
"(. c #BCB3B3",
"). c #BBBCBC",
"_. c #B8B8B8",
"`. c #C2BCBC",
"'. c #8ECB83",
"]. c #94C382",
"[. c #9AC988",
"{. c #92D982",
"}. c #A3D18F",
"|. c #A7D493",
" X c #A1E18C",
".X c #BEC2C1",
"XX c #C4CCCB",
"oX c #C9C8C7",
"OX c #CBD4D3",
"+X c #CCD8D7",
"@X c #CDD9D7",
"#X c #D4D3D3",
"$X c #D3DDDC",
"%X c #DCDAD8",
"&X c #CDD1CF",
"*X c #E1DFDD",
"=X c #D3E0DF",
"-X c #E2E1DF",
";X c #D5E0E0",
":X c #DBE5E5",
">X c #DDE9E9",
",X c #DFF1F0",
"<X c #E2ECEC",
"1X c #EAEAE9",
"2X c #E5F4F5",
"3X c #E9F5F5",
"4X c #EDFEFE",
"5X c #E7F8FA",
"6X c #F2FEFE",
"7X c #FCFEFE",
"8X c #F4F4F3",
/* pixels */
"7X7X7X6X7X7X4X7X7X7X4X4X2X2X7X7X7X7X7X6X7X7X4X7X7X7X4X4X2X:XoX!.`.!.(.oX1X7X4X7X7X7X4X4X2X2X7X7X7X7X7X6X7X7X4X7X7X7X4X4X2X2X7X7X",
"7X7X7X4X4X4X4X2X3X7X6X4X2X7X7X3X7X7X7X5X>X;X=X$X;X1X@XOXXXoX!.W.W.R.W._.%X>X@XXXXX*X2X4X2X7X7X3X7X7X7X4X4X4X4X2X3X7X4X4X2X7X7X3X",
"4X7X4X2X2X4X5X2X7X4X4X2X7X7X4X4X4X7X4X;X/.E.S.~.`./.l.a d 0.v.N.b.b.b.G._./.z.a a A.$X2X7X7X4X4X4X7X4X2X2X4X4X2X7X4X4X2X7X7X6X4X",
"7X3X2X2X7X7X2X7X7X4X4X2X7X7X2X$X%XXX+X.XS.j.j.Z.W.F.7 X X & d j.q.j.h.A.Q.J.9 o # f ).;X1X1X+XOX8X2X2X2X7X7X2X7X7X4X4X2X7X7X4X2X",
"7X7X4X4X4X7X3X7X4X4X2X7X7X3X#XQ.q.q.A.U.v.j.j.C.Q.F.9     & d j.j.j.h.A.Q.F.9 % y h.A.~.`.^.q.v.%X7X4X4X4X7X3X7X4X4X2X7X7X4X4X2X",
"4X4X4X4X2X7X7X7X2X,XOXXX$XOX(.A.d t a h j d.j.C.H.D.g = O * h j.j.j.j.c.D.q.= & h j.j.Z.Q.F.9 y ~.+X=X>X<X7X7X7X2X4X2X2X4X4X4X7X",
"7X3X2X2X7X6X5X7X2XOXZ.j Z.U.A.A.A.c.t - r d d.k.b.A.F.j.= % g j.j.j.j.j y 7 O & f h.h.A.Q.G.9 % t j Z._.1X4X2X6X2X2X2X7X4X4X2X2X",
"7X7X4X4X5X5X5X<X*XQ.r & d h.h.Z.R.Z.7 o * r d d.h.C.Q.F.9 % i j j k j a %   % 9 j l.b.A.D.x.= X # r h L.&X2X5X2X7X7X2X2X7X4X4X7X",
"7X4X4X4X2X2X,X+XS.7 # % r d 0.l.b.k * . o * r d k A.Q.F.; O r u u u u r # # y j k b.R.A.g = o % y f h.A.(.&X>X2X7X7X6X2X7X7X4X4X",
"4X4X4X7X7X6X<X.X0.7 O O & r f h.j.j u = O o & r d c.Y.U.#.q s $.$.$.$.p * - h k.v.A.J.c.t % % 9 j j.j.b.W.`.oX$X2X4X4X2X7X2X2X2X",
"7X7X7X2X6X>X_.T.F.x.= X o & r d k n.F.x.= . O & r 0.K.|.].t.].].].].].y.s r j A.H.D.g t a f d j d.h.h.A.W.R.q.B.@X4X2X7X7X4X4X2X",
"7X2X2X2X=X).Z.C.R.A.u * ; 7 - r j C.U.F.s 6 6 6 2 @.<.s.a.a.p.p.a.s.a.<.@.p e.L.^.L.7 # u d.j.j.b.A.N.A.D.c.t h .X>X2X7X4X4X2X5X",
"6X7X4XOXB.d %.n.b.v.j k A.n.; * d n.b.L.t.t.t.,.' ! { o.{ o.o.o.o.o.o.{ ^ ] r.}.|.t.6 o ; d k v.T.Q.Q.D.a 9 i j.Q.#X<X2X2X4X2X2X",
"4X4X4XXXa * i f.j k h.A.Q.U.g s w.M.%.&.u.s.s.5.| F F F F F F F F F F K F | 4.a.a.>.3 , p 0.v.A.A.G.F.c.t ; h b.R.).%X<X6X7X4X5X",
"7X6X7X.Xa % r u u d k A.^.^.K.i.[.t.*.` ) o.o.| L z l C l z z z z z z z C L |  .o.[ Q ' ,.[.W.D.g ; 7 t a j h.l.v.J.(.%X8X6X5X5X",
"7X8X<X~.r O - - - r d j.N.L.i.p.a.5.) F F F F F C C C l z z z z z z z z z C F F F F F | 6.'.K.I.s 5 # = f l.j.j.h.v.D.^.$X5X3X7X",
"7X-XF.9 % X # O O & r u t q ' ....| L z z z l C v F F V G V n D V F v F F v B C l C C L | X.X.:.r.y.w r j j.j.j.k.j u z.&X2X7X7X",
"7X#Xa o X O # 7 7 7 ; * $ < n J F B z T l C C L ) o.o.o.o.o.o.{ o.o.o.X.X._ Z C C C T l V F F { 6.r.s u j j.k.f.j r # a XX7X7X2X",
"7X&Xd o X # y 0.A.c.7 @ < n J J B l T z B F F ) 5.a.a.a.a.a.a.p.a.a.a.a.a.7.) v F B l l C B G H { ' p u j k.n.j t % o a &X7X4X5X",
"7XXXa o # 7 f N.R.J.g 2 S F F K B z z L | X.X.=.8.a.a.a.a.a.a.a.a.a.a.a.a.8.=.X.o.) Z C C C K K F S ~ p f j h y # o % h oX8X4X2X",
"7XOXf O * r j l.C.A.J.M.E z z C V F F ) 5.a.a.8.=.X.X.X.o.o.X.X.o.o.o.X. .O.p.a.a.7.) F F v B C l B S / p r ; # o # y j.!.#X<X3X",
"4XOXa O 7 u f h.h.C.R.I.E x z B F H { ;.8.a.a.7.) v v G F v D v D v G v F ) 5.a.a.8.;.{ H F B C Y C P S 2 ; & & & 7 j A.Q.oX<X7X",
"7XXXa O - u u d d.n.C.g.E T v F G { 6.8.=.X.O._ Z C C C C C C C C C C B C Z ) X.X.;.8.6.{ D F V C T z N @ * u g f j 0.A.W.oX:X3X",
"8X`.f - - - - r d d d @.E L | ..X.=.8.7.) F F V C T T T T l T T T T T T Y C V F F _ 7.8.=.X.X._ L l T M 4 ; j n.j.j.j.v.A.Q.:X7X",
").Z.h.u * O O # & * * , c | 4.p.a.8.=.) Z C C l l T T T l T T T T T T T l l z z l Z ) 3.8.p.{.9.| K C M 1 r d.j.j.l.j.j y x.@X<X",
"S.k j.j 9 % o X X X $ < b  .p. X{.5.) v l T Y l Y l C C C C C C C C C z T T T Y l l v ) 5.{.{.a...F B N e p d j h f h a t q.oXXX",
"h.d h.j.j y O . X + < n G  .a.{.3.) Z C l T Y l T C V F F F F F v n F K z T T T Y l C L ) 3.{.a. .D F Z A R p u = & % t c.R.).Q.",
"a r d h.j.k u t 9 0 n J { =.8.5.) B l Y Y l C C C L ) X.X.X.X.X.X.o.{ [ L C C C l Y Y T v ) 5.8.=.{ H K Y M 1 = * & % y A.Q.(.H.",
"y & r d d.l.A.G.J.M.` { 6.8.=.) V x I U Y C V F F ) 9.a.a.a.a.a.a.a.a.7.) F F V C Y U U l V ) =.8.7. .F z M 4 * u h h j v.J.Q.G.",
"- o * r f l.T.!.(.Y.:.O.8.7.) v C Y U I T B F H { =.8.a.a.a.a.a.a.a.a.8.=.{ H F B l I U Y z v ) 9.8.=.H Z M > - h j.j.j.j.v.D.x.",
"O o O * r f k.G.!.^.'.8.3.| L l l Y Y l Z F G { 6.8.;.X.X.o.X.X. .X. .=.8.6.{ G G L T Y Y l l L _ =.8.7.| S 2 r j c.j.j.j.0.u = ",
"X X X O * r u j b.U.|.s.{ F z x Y l C B G H { ;.8.7._ F v F F F F F F _ 7.8.=.{ H F B C l Y Y l F  .p.{. .Q 2 i j j.z.h.h y %   ",
". X . X O O % * ; #.[.s...F z T T C V F G { 6.8.;.) Z C l C C C z z C Z _ ;.p.5.{ D F V C l T C F X.a.a.o.S 2 i d.k.j.j ; % X   ",
"* % * * * = ; = o 5 >.7.| V z T T C F H { O.p.6.) B C T x l Y l Y x T l B ) 6.8.;.{ H F C Y Y C V ) 7.8.2./ 0 t i f h i t 9 9 ; ",
"y r a f d k A.j.= $ / | L C z T T C F { 6.p.;.) Z C T T l Y l Y l T T l l Z ) =.8.6.{ D C Y l l l V ) =.8.>.8 # & & & t x.F.F.v.",
"f r j j.j.b.R.J.g 0 Q F C Y T T C Z _ O.8.5.| v C Y T l C C C C C C T T T C v ) 9.8.=.[ Z C l Y Y z F o.a.t.p O % & & y D.Q.`.H.",
"y = h j.k.k.v.A.D.e.` J C T T C V | 7.u.2.) L l T T T C L F F F F L z T T T z Z [ ;.u.6.) V C Y l C F  .p.].s r i f d j c.J.Q.G.",
"7 % i f.j.j.j.C.W.Y.*.F C T T C F X.s.a.{ F z Y T l C C F H  .{ H F P z l T T C v o.p.p.o.F C l Y C F o.p.].$.u j l.j.j.j.b.Q.F.",
"r O r d d.j.j.V.Q.P.*.F C T T C F o.p.a. .F z T x z V F G { 7.7.{ G D F C T T z F o.a.a.o.F C Y l C F o.p.].$.u j k.j.j.h.N.Q.F.",
"= O - u d d j j.A.m.] F C T T C F o.p.p. .F z T l z n [ { =.8.8.2.{ ! V C T T C v X.a.a.X.F C l Y C F o.p.].s r d k k j h k b.x.",
"# # 7 r - 7 r u t 0 ! F C T T C F o.a.a.X.v C l l C F { 6.8.=.=.8.7. .F C T T C F X.a.a.X.F C Y T C F O.a.t.q & r u a r - * 7 * ",
"O o * * o o & - o : b F C T T B F X.a.a.X.D C T Y C F  .7.8.O.=.8.7. .F C T T C F X.a.a.X.F C l T C F o.p.t.s * - - - ; r 7 7 = ",
"= X o O X X o o o : n J C T T C F X.a.a.X.F C T x C n [ { =.8.8.=.{ H F C T x C F X.a.a.X.F C T T C F { p.[.e.y * O O ; x.J.F.q.",
"i & & = 7 7 r - O : n F C T T C F o.a.a.X.v C T x z P F G { 7.7.{ G G V C Y l C v X.a.a.o.F C T l C F o.p.[.B.j r # & u D.!.`.U.",
"j.d d k N.F.J.x.=   n F C T T C V X.a.a.X.F C l T l C C G [ { { H F V C T Y l l D { p.p.O.D C T Y C F { p.[.B.f.j f d k n.J.!.W.",
"j.k j.Z.R.Q.Q.J.g 0 ! D C T T C V [ 6.8.=.) B l T T T C B F F F F L C T T l l Z _ ;.u.6.{ v C T Y C F o.p.[.M.j j h.j.h.j j b.V.",
"u d h.l.b.A.A.A.J.m.' v C T T T B V ) =.8.5.) B l T T l C C C C C C l T T l V ) 7.p.O.) Z C l Y l C F { p.[.%.u u d h.j 9 * = t ",
"r u d d.h.h.f k D.m.:._ Z C C T T C v { 6.p.;.) Z l l T T T T Y T T T T l Z ) ;.8.7.{ v l Y T l z L | 2.8.,.s * - r i y % O = 9 ",
"d r u d d.j 7 * ; #.r.5.| F l l T C F H { =.8.6.) V C x x l Y l l x l C V | 7.8.=.{ H F C T T C B | 7.8.=./ , O O O & # o = c.b.",
"u - r u d y # .   6 t.a.o.F z Y T C Z F G { 6.8.;.) Z C C l C C C l C V ) O.p.5.{ G G L C T T C F o.a.p. .S 1 * * = 7 * o = c.b.",
"& & r r = % o     6 t.a...F z x T T C B G H { =.p.6._ v D F F F v F v ) 7.p.=.{ H F V C T T T C F o.a.a. .^ p h g k V.x.= O = 7 ",
". O * & O O = 9 ; s r.8.=._ V l l Y Y l V F G { 5.8.;.X.X.X.X.X.X.o.X.=.8.5.{ G G V T Y T T C L ) 2.8.7.H ^ g.d.k.C.R.J.g = O   ",
". o # o X = c.G.J.m.1.O.8.7.| B C Y U I C V F H { O.u.s.a.a.p.a.a.a.a.8.=.{ H F B T I U Y l v | 7.8.=.| L E %.d.j.k.b.A.F.x.=   ",
"O O # & & u A.!.(.P.*.[ 5.8.=.| Z x I U Y C V F F ) 7.a.a.p.a.a.a.a.a.5.) F F V C Y U I l Z ) O.8.7.[ F z R %.d.j.j.j.b.U.J.g = ",
"7 # u f f j z.G.!.P.*.J [ =.8.5._ B l Y Y T C C C Z ) X.o.X.X.X.o.o.o.) L C C C l Y Y T B ) 6.8.;.{ H F z R e d d.j.j.j.b.A.G.c.",
"- % f j.z.j.h.b.T.I.-.D D o.a.{.3._ Z C T T Y l l C B F F F F F V F F V C T T T T l l L { 3.s.a.X.G F K z M 1 r d d.j.f.f k N.x.",
"O * f c.j.j.j.c.C.g.E B D { a.|.{.5.) v l l l Y T l z C C C C C B C C C T T T T Y l v | 5.s.}.s...F B z l M @ * r f f.j r * ; = ",
"O % y h h d d g h p R l B ) 4.s.a.8.=.) B C C C T T T T l Y l T T T T T T C z C C Z ) ;.p.a.a.6.| B z T C m @ O & r i a t 9 ; = ",
"= X % % * & % * * 1 M x z L |  .X.;.8.6._ v F V C T T T Y T x T T T T T T C v v F _ 7.8.O.X.X.) L l l z L c @ o O O & t c.J.F.q.",
"i * % * * * 9 = O @ m Y T l v D G { 6.8.;.X.X.| B C C C C C C z C C C C C Z ) X.X.;.8.5.{ G F V C T l C F Q , & & & & y D.Q.`.H.",
"x.d d d d 0.A.x.= @ M T T l z B F H { =.8.a.a.6.) v v G D F F F F F F D v ) 6.a.a.8.;.{ H F B z T T T C F Q 2 r i h f j x.G.Q.W.",
"j.j k k j.v.T.A.7 + m z l T T l Z F F ) 7.a.a.8.;.X.X.X.} }  . .X.X.X.X.o.=.8.a.a.9.) F F L l T T T C L | / 0 r f d.h.j.j.c.A.N.",
"u u u d k l.b.k * + c L C T T T C C C Z _ X. .O.8.s.a.p.p.p.p.p.p.p.p.p.a.6.=.X.o._ L C C C z T T z K | 9.,.8 & r d d.j.j.j y t ",
"- r r u k j.j.d * : n J C T T T T T T C F G D } p. X X}. X X X X X}. X X|.a.{ D G F C T T T T T T C F O.{.t.8 O - u k c.j.g % O "
};
