/* XPM */
static char *result[] = {
/* columns rows colors chars-per-pixel */
"64 64 215 2 ",
"   c #54453F",
".  c #386E50",
"X  c #554640",
"o  c #564942",
"O  c #594C46",
"+  c #5B4E49",
"@  c #4C5D43",
"#  c #4A5B4A",
"$  c #475A47",
"%  c #5E524C",
"&  c #595648",
"*  c #5F5C56",
"=  c #60544E",
"-  c #625652",
";  c #645954",
":  c #695C56",
">  c #675D5B",
",  c #6A5E5A",
"<  c #4E6043",
"1  c #4D614D",
"2  c #416D4B",
"3  c #54674B",
"4  c #5A6E5B",
"5  c #576A57",
"6  c #4E7D5F",
"7  c #5A7057",
"8  c #5D745C",
"9  c #4F6350",
"0  c #63634E",
"q  c #6E625D",
"w  c #646657",
"e  c #71645F",
"r  c #61755B",
"t  c #69745C",
"y  c #5E7462",
"u  c #497963",
"i  c #6D6463",
"p  c #716663",
"a  c #746A66",
"s  c #756C6C",
"d  c #796E6D",
"f  c #736668",
"g  c #697968",
"h  c #7A726E",
"j  c #747A62",
"k  c #7D7574",
"l  c #7D7A77",
"z  c #817572",
"x  c #807977",
"c  c #847C7C",
"v  c #887F7D",
"b  c #827778",
"n  c #1C955D",
"m  c #1F9859",
"M  c #17935E",
"N  c #1C8F5E",
"B  c #269E4F",
"V  c #3C9345",
"C  c #3C934B",
"Z  c #32924B",
"A  c #2C8455",
"S  c #2A835A",
"D  c #2C895F",
"F  c #278759",
"G  c #338C5B",
"H  c #269D53",
"J  c #209959",
"K  c #2B9F58",
"L  c #23955C",
"P  c #3D9552",
"I  c #399A55",
"U  c #388E4A",
"Y  c #2CA34B",
"T  c #2CA547",
"R  c #30A646",
"E  c #35AA47",
"W  c #3AAC4A",
"Q  c #32A94A",
"!  c #2AA152",
"~  c #2CA058",
"^  c #27A252",
"/  c #138E66",
"(  c #118D68",
")  c #179163",
"_  c #1A9360",
"`  c #0F8D67",
"'  c #298C60",
"]  c #2C9663",
"[  c #3B966C",
"{  c #41974C",
"}  c #43994E",
"|  c #4D8C54",
" . c #469D56",
".. c #549857",
"X. c #508553",
"o. c #71875E",
"O. c #42AF57",
"+. c #4EA55B",
"@. c #43AF58",
"#. c #4BA257",
"$. c #55A65B",
"%. c #44B156",
"&. c #49B353",
"*. c #4FB857",
"=. c #45B058",
"-. c #4FB758",
";. c #4EB958",
":. c #50B758",
">. c #51B858",
",. c #50B857",
"<. c #429B6A",
"1. c #5E9D64",
"2. c #439C74",
"3. c #50886A",
"4. c #6E846B",
"5. c #77836B",
"6. c #778975",
"7. c #7B9179",
"8. c #6F8571",
"9. c #5EAC63",
"0. c #5EBE61",
"q. c #47A862",
"w. c #60BE62",
"e. c #6BB76F",
"r. c #7EB772",
"t. c #5EC061",
"y. c #71C76F",
"u. c #74CA6F",
"i. c #72C870",
"p. c #7BCD73",
"a. c #76C670",
"s. c #75CC71",
"d. c #89827E",
"f. c #87807F",
"g. c #85937E",
"h. c #809F6B",
"j. c #81B973",
"k. c #87D47B",
"l. c #89D47C",
"z. c #88D87D",
"x. c #88C07E",
"c. c #867F80",
"v. c #887E80",
"b. c #7E9580",
"n. c #7EAB8C",
"m. c #878080",
"M. c #8B8484",
"N. c #8D8A85",
"B. c #8E8788",
"V. c #8E8888",
"C. c #918583",
"Z. c #938886",
"A. c #938C8C",
"S. c #998F8D",
"D. c #93878B",
"F. c #869987",
"G. c #9B918F",
"H. c #93928E",
"J. c #998E91",
"K. c #969291",
"L. c #9B9292",
"P. c #9E9A97",
"I. c #A29796",
"U. c #A39997",
"Y. c #A49B9A",
"T. c #A99E9E",
"R. c #A59698",
"E. c #98A792",
"W. c #8FA596",
"Q. c #A3A898",
"!. c #A6B49E",
"~. c #A89FA0",
"^. c #98ADA1",
"/. c #ACA2A3",
"(. c #A4A3A3",
"). c #B0A6A6",
"_. c #B4ABAB",
"`. c #B8AEAF",
"'. c #ADB0AD",
"]. c #B6B7AC",
"[. c #B4B3B3",
"{. c #BCB3B3",
"}. c #BBBCBC",
"|. c #B8B8B8",
" X c #C2BCBC",
".X c #97C785",
"XX c #8EC582",
"oX c #A9D695",
"OX c #A5E38F",
"+X c #BEC2C1",
"@X c #C4CCCB",
"#X c #C9C8C7",
"$X c #CBD4D3",
"%X c #CCD8D7",
"&X c #CDD9D7",
"*X c #D4D3D3",
"=X c #D3DDDC",
"-X c #DCDAD8",
";X c #CDD1CF",
":X c #E1DFDD",
">X c #D3E0DF",
",X c #E2E1DF",
"<X c #D5E0E0",
"1X c #DBE5E5",
"2X c #DDE9E9",
"3X c #DFF1F0",
"4X c #E2ECEC",
"5X c #EAEAE9",
"6X c #E5F4F5",
"7X c #E9F5F5",
"8X c #EDFEFE",
"9X c #E7F8FA",
"0X c #F2FEFE",
"qX c #FCFEFE",
"wX c #F4F4F3",
/* pixels */
"qXqXqX0XqXqX8XqXqXqX8X8X6X6XqXqXqXqXqX0XqXqX8XqXqXqX8X8X6X1X#X`.`.{.{.#X5XqX0XqXqXqX0X8X6X6XqXqXqXqXqX0XqXqX8XqXqXqX0X8X6X6XqXqX",
"qXqXqX8X8X8X8X6X7XqX0X8X6XqXqX7XqXqXqX9X2X<X<X<X1X5X$X$X@X#X`.).).)./.}.=X2X&X@X@X=X6X8X6XqXqX7XqXqXqX8X8X8X8X6X6XqX8X8X6XqXqX7X",
"8XqX8X6X6X8X9X6XqX8X8X6XqXqX8X8X8XqX8X>X[.(.^.). X[.V.h k d.Z.L.G.G.K.Y.}.[.C.h h P.=X6XqXqX8X8X8XqX8X6X6X8X8X6XqX8X8X6XqXqX8X8X",
"qX7X6X6XqXqX6XqXqX8X8X6XqXqX6X=X*X;X$X@XP.M.v.J._.U.q o o - k m.M.f.m.G.).Y.q O % l }.<X5X5X$X$XwX6X6X6XqXqX6XqXqX8X8X6XqXqX8X6X",
"qXqX8X8X8XqX7XqX8X8X7X0XqX7X*X_.d.v L.P.V.M.M.K.).U.q     ; k B.B.m.m.J._.Y.e = a m.K._. X].d.H.-XqX8X8X8XqX6XqX8X8X6XqXqX8X8X6X",
"8X8X8X8X6XqXqXqX6X3X$X@X=X$X{.L.z p h x c c.M.A.Q.U.z : + - k B.M.M.B.A.I.d.: - k M.M.K._.Y.e a '.%X>X2X4XqXqXqX6X8X6X6X8X8X8XqX",
"qX7X6X6XqX0X9XqX6X$XK.c L.Q.L.L.P.Z.a > f k c.B.A.L.R.C.: - z B.M.B.C.c d 0 + - k B.m.L._.U.e % p c K.|.5X8X7XqX6X6X6XqX8X8X6X6X",
"qXqX8X8X9X9X9X4X,X_.i ; h m.m.K./.G., o * i k c v.J._.Y.e = d v v c v d =   = e c V.S.L.I.d.: O % i x E.;X3X9X6XqXqX6X6XqX8X8XqX",
"qX0X8X8X6X7X3X$XP.q = % q k f.V.J.f.;   O ; f k v G._.Y.i + i d s d s i + % a c v A./.R.z ; + = a c m.L.`.;X2X6XqXqX0X6XqXqX8X8X",
"8X8X0X0XqX0X4X+Xd.: = + ; i l f.m.c d : % O - f k N.E.F.r 3 7 r y 8 y 4 - : c B.A.L.Y.C.p = = e x M.M.J.). X#X>X6X8X8X6XqX7X6X6X",
"qXqXqX6X8X2X|.(.Y.d.:   O - i k v V.P.C.: o + - f g 1.+.{ { } } } } } | 4 f c K.T.R.k p h k k c m.m.m.J._.Q.d.K.&X8X6XqXqX8X9X6X",
"qX7X6X6X=X}.K.K./.P.d ; q q > i c J./.P.t @ @ 3 4 6 I T Y Y Y Y ! Y T I u g 8.b.E.F.w = d f.M.V.A.L.S.I.I.Z.p x +X2X6XqX8X8X6X8X",
"0XqX8X$XH.h f.V.K.A.c f.K.C.q > l B.K.N...V V C G ' J J J J J J J J m L ' G  .+.$...3 % e k c A./._._.L.h p d C.`.*X4X6X6X8X6X6X",
"8X8X8X@Xk * h c c v m.L._.Y.t 3 4.6.6.3.#.Y Y ! J m J m L L m J m m m m m J ^ Y Y Z 2 1 4 g M.L.I.Y.U.Z.e , x A.T. X=X4X0XqX8X9X",
"qX0X0X@Xh = i s s h f.L.`.Q.1.V } #.[ ] ] m J J ! Y Y B B R T B Y Y Y Y Y ^ ~ m J L F A P 1.E.P.z q e p h c m.V.D.Y. X*XwX0X9X9X",
"qXwX,X'.f % * > > i k C.L.F.q.Y Y Y m m m n J K @.>.>.:.-.>.-.-.>.>.:.>.>.=.~ m J J m J B q.W.F.8   & : l M.B.M.M.C.L.].=X9X7XqX",
"qX,XP.e = O + % + - i s p 4 G m m m Y Y Y Y B O.y.l.l.k.k.k.k.l.l.k.k.l.l.y.@.T Y T Q ! m ] [ [ C | 3 a b M.M.M.M.c a N.;X6XqXqX",
"qX*Xz O   & = : , p , > & . F _ n ^ Y W ;.-.*.0.p.l.l.l.k.k.l.l.k.l.k.l.l.p.0.>.-.;.W Y ^ m n n ^ I 8 d c.M.B.M.c a % h @XqXqX6X",
"0X*Xk o o % a d.J.Z.q # . F M m ^ Y T &.a.l.l.p.0.>.>.>.>.>.>.>.:.:.-.-.-.0.p.l.l.y.&.Y Y ^ m n n D y s c.M.D.b i - o h *XqX8X8X",
"qX#Xh O O q x K.~.R.z 4 ' _ n ~ %.:.,.0.p.l.l.y.@.B Y Y Y Y Y Y B Y Y T ^ @.a.l.l.p.t.;.>.W K m _ ' u g l c b f % o - l #XwX9X6X",
"qX$Xl + ; f 6.D.K.J.R.F.[ n B O.a.l.l.p.0.-.:.@.K L m J L J J J L L J J J K =.>.:.0.p.l.l.u.@.B n ' ' G g f > = O % a Z.`.*X6X6X",
"0X@Xk + q s l c.m.A./.W.[ H O.0.p.l.l.u.%.T Y H n ) M M M n ) N n M M M ) n H Y Y @.y.l.l.k.w.@.~ m M ' 4 , ; - - i l L.).#X4XqX",
"qX@Xh % i f s k c.D.J.b.#.W u.p.w.:.>.@.~ J m n / ( ) n M _ n n ) n _ ) ( / n J J ~ =.:.;.>.p.a.%.^ M F # > f k k c m.K.).#X1X6X",
"wX Xk * > > > i k k k 8.9.t.p.u.&.Q Y H n ) ) ) ( ( n J L J J J L J J n / ( ) ) ) n H Y T ;.a.p.t.%.~ A 9 > b D.B.M.B.Z.G._.1XqX",
"}.L.m.s ; + % % ; ; = t j.p.0.&.W Y H n ( ( ) _ ) n H Y B R Y B Y Y Y H n ) ) ) ( / n H Y W &.0.p.s.%.C 5 f c M.B.B.N.c a C.&X4X",
"P.c.M.c i % O X   O 0 o.j.u.;.T Y ! m ) ( / n J m ~ =.>.>.-.>.-.,.,.:.&.K J L n / ( ) L H Q T &.i.p.t.+.X.g l c l k z h p f.@X@X",
"M.h m.m.c a % X   0 h.j.w.&.W Q H L n ) ) n H Y T %.a.l.l.l.l.l.l.l.l.y.@.T T H n ) ) n J H Y W &.t.p.s.9.| g f : - = p C./. X_.",
"h i l m.M.v s q e 5..Xz.*.R Y H n _ J J m ~ =.>.-.0.p.l.l.l.l.l.l.l.l.p.0.-.-.&.~ J J n _ L ! Q T ;.z.XX;.C 7 > - - - a L.`.{.Y.",
"f - f k m.V.L.R.I.Q.OXk.;.T H m n L H Y Y @.a.l.l.p.0.-.-.-.>.:.-.-.-.0.p.XXz.i.%.Y Y ! L n m H T >.l.l.;.V < ; s k k c A.Y.`.Y.",
"> O - i l V.~.`.{.]..Xu.O.H n ) ) m Y W &.0.p.l.l.y.O.T Y Y Y B Y Y Y @.y.l.z.p.t.&.W Y m ) ) n ^ =.i.p.t...3 > x N.M.M.M.Z.L.N.",
"% o + - i k V.Y.`.!.e.%.K n ` ( ) J Y &.u.p.w.:.:.@.~ m m J J J m m m ~ &.,.:.t.p.a.&.Y m ) ( ( n ~ %.t.p.j.g f c B.M.M.M.d.a q ",
"o o o + * i d v G.g.$.T m ) ( ( n ~ O.0.p.u.&.R Y K n ) ) M _ n M ) ) n H Y T &.i.p.0.@.~ n ( ` ) m Y :.l..X5.s c M.B.M.x p %   ",
"  o o o + + - - q r } Y J ) ) n K =.a.p.0.&.W Y H n ( ( ) M n n _ ) ( ( n H Q W &.0.p.a.=.H n ) ) m T ,.z..X6.s c B.N.c q % o   ",
"- = ; ; - : , : O @ U ! m ) ) m T :.l.l.:.R Q H J ) ( / m L L J J n ( ( ) J H Y R :.l.l.>.Y m ) ) n H =.i.r.j i d k x h p e q q ",
"d i s k k v.L.C.: $ A m / ( ) m T -.l.l.:.Y H m n ) ) n H Y B Y Y H L ) ) n J H Y :.l.l.-.Y m ) ` ) n ~ %...5 % - - = p Z.R.U.Z.",
"k p c B.B.K./.R.z 4 ' ) / / n ~ O.0.p.u.@.H m ) ) n J K @.>.>.>.>.@.~ m n ) ) n H @.y.p.0.@.~ n ( ( ) J Y V 3 % - - = a L._. XQ.",
"p : l B.M.B.A.L.I.F.[ ) ) n H =.y.p.0.@.~ m ( ( ) J H @.y.l.l.l.l.u.@.B J ) ( / m K O.0.p.u.@.H n ) _ J Y } 7 i h k k c D.R.`.R.",
"q = h f.M.M.M.J.).^.2.M n J T -.l.l.>.B L ) ( ( n K =.>.p.l.l.l.l.k.>.@.K n / ( ) m T -.l.l.>.R J _ _ J Y } y d v B.M.M.M.J._.U.",
"q + i k v.B.M.J.).^.2.M M m Y >.l.l.>.T J ) / m H =.p.p.w.-.>.>.-.0.p.a.=.H n ) N L B -.l.l.>.Y m _ _ J Y  .r h v M.B.M.B.G._.U.",
"w + > f h b c C.L.F.[ M _ m Y :.l.l.:.B J _ n L Y >.l.l.-.R R R R -.l.l.>.Y J _ n J Y -.l.l.>.B J ) _ J Y } 7 p k c c c k d.G.d.",
"+ % q i * > f s p 4 D n _ m Y :.l.k.:.Y J ) n J Y >.l.l.:.R R R R *.l.l.>.Y J n _ J Y :.l.l.*.Y J _ n J Y V 3 - f s d f > ; w : ",
"+ + > - O O * - % $ A _ _ m Y :.l.l.:.Y J N ) J Y ,.l.l.:.R R R R *.l.l.>.Y J _ _ J Y :.l.l.-.Y J _ _ J Q { 5 : > > > > q q q : ",
", O O O o o + + o $ F _ _ J Y >.k.k.>.Y J n n J Y ,.l.l.:.R R R R :.k.l.:.Y J M n L B >.l.l.>.Y J _ ) J Y  .g d ; + O i C.I.I.M.",
"d = ; : q e i : % $ F _ _ m Y >.l.l.&.Y J ) ) n H @.u.p.0.:.-.-.-.0.p.y.@.H m ) M L Y >.l.l.>.Y J n n J Y #.7.c i - - a I.`. XT.",
"M.k k v G.R.Y.Z.: $ . _ ) J Y >.l.k.,.B m ) ( / n K @.w.p.l.l.l.k.p.>.=.~ ] / ( ) m T -.l.l.>.Y J ) n J Y #.7.M.x l k c C.R.`./.",
"M.v M.K.Q._._.I.x 4 ' ) ) m H @.u.p.0.O.K n ( ( ) J B @.a.l.l.l.l.a.@.H m ) ( ( n K O.w.p.y.@.H n ) ) J Y  .8.c v f.M.f.x v G.L.",
"a l m.Z.A.J.J.I.R.F.[ M ( / M K O.0.k.y.=.B n ) ) n J ~ @.>.>.>.:.@.K J M ) ) n H @.u.p.0.@.K n / ( ) J T } g s d l M.c q ; , e ",
"i f k c.M.v.x v L.F.<.n / ( N H B >.l.l.>.B H J n ) ) n H Y Y Y Y H n ) ) n J K T >.l.l.:.Y m / ( / n ~ O.$.8 > > i h a = + : i ",
"h i f l f.c q ; e r P ! n ) _ m Y >.l.l.>.R Q H J ) ( / n J L J J m / ( ) n ! Y R -.l.l.>.Y J ) ) n H =.s.j.t O + % = % O q d.G.",
"d i i f k a %     @ V Y J _ ) n H @.u.p.w.&.W Y H n ( ( ) n M M M ) ( ( n H Q W &.w.p.y.@.H n ) _ J Y >.z..Xj = - : q : + : Z.S.",
"- * > i , = O X   @ V Y J ) ( ) n K O.0.p.u.&.R Q H n ) M M M n _ ) ) n H Y R &.u.p.0.O.~ n / ( ) m T -.XX.Xg.l k f.G.C.: + : q ",
"X % * * + + : e e t $.&.~ _ ( ` ) J B ;.u.p.w.:.>.@.K J m L L L J L J ~ @.>.-.w.p.a.&.T L ) ( ( n ~ @.0.p.j.F.M.M.A./.U.z : O   ",
"X O % O o : M.R.Y.E.XXy.=.! n ) _ J Y W &.0.p.l.l.y.@.T B Y B R Y T B O.y.l.l.p.t.&.W Y J ) ) n H =.i.p.t.9.7.M.B.B.A.L.U.C.:   ",
"+ + = ; = s P._.{.].oXz.;.Y H m _ m ! Y T @.i.l.l.p.0.>.>.>.-.>.>.>.>.>.p.l.l.a.%.Y Y ! J ) J H Y >.l.l.:.} 8.m.m.M.M.A.Q.Y.z : ",
"> % s k z c Z.R.`.].oXl.*.R Y ! L _ L J m K @.,.:.0.p.l.l.l.k.k.l.l.l.k.0.>.>.=.~ J J n n L ! Y T ,.l.l.;.C g k v.B.M.B.A.P.R.Z.",
"> - k B.N.B.M.A.Q.!.XXp.0.&.W Y H m _ ) ) n H T B @.u.l.l.l.k.k.l.l.l.y.@.Y Y H n ) ) n n H Q W &.0.p.i.%.P 7 i k v M.v x v G.C.",
"O : z N.B.B.M.D.S.F.9.t.p.i.;.T Q H J ) ( / n L J K =.>.:.:.:.:.*.>.:.@.~ J J n / ( ) J H Y R &.i.p.t.W ~ A # - i k m.c , - , : ",
"+ = a l k k k z z g P @.i.p.>.&.W Y H M / / ) M / L H Y Y Y Y Y Y Y Y H n ) ) ) ( / n H Q W &.w.p.p.=.^ m S # + ; i h d a e q : ",
": O = - - - = - - 5 A ~ %.t.k.u.&.R Y K n ) ) ) / / n J J J J J L L J m / ( ) _ M n H T R &.a.p.w.=.~ n _ F # O + + - p C.I.U.d.",
"h - - - - : e : + # A m H &.a.p.0.*.>.@.K J L n / ( ) _ _ _ n _ M M M ) ( / n J L K @.>.:.w.p.i.@.H n _ m G 9 % - - - s I.`. XT.",
"N.k k k k f.G.C., $ S _ n ~ %.0.p.l.l.y.@.T T H n ) _ _ M _ _ _ _ _ n _ ) n H Y B O.y.l.l.p.0.&.~ m ) J ! P 4 i k k k c Z.Y.`./.",
"M.c c v m.K./.G.e $ A m _ m J W y.l.l.p.0.-.-.@.K J J J J J J J J J J L J ~ @.:.*.0.p.l.l.y.@.H m ) J H Q } 7 f k v M.M.M.C.L.L.",
"s s d k f.V.J.v : @ C ! J _ J ~ @.:.-.0.a.l.l.y.%.I Y Q Q I Q B Q Y Y Y Y O.u.l.l.p.0.>.:.@.~ n _ J ! Y E C 3 - i k f.B.M.c a p ",
"* i i s c M.B.k - < C Q J _ _ J T R Y &.l.OXOXk.*.R E W E R W E W W W R R >.l.OXOXl.&.T R Y J _ _ J Y W E C @ + > s c M.B.k - O "
};
