/* XPM */
static char *result[] = {
/* columns rows colors chars-per-pixel */
"64 64 212 2 ",
"   c #54463F",
".  c #1D7963",
"X  c #2F7D62",
"o  c #367757",
"O  c #554640",
"+  c #564A42",
"@  c #594C46",
"#  c #5B4E49",
"$  c #465947",
"%  c #465A49",
"&  c #495C4B",
"*  c #4C5C44",
"=  c #5E524C",
"-  c #525B46",
";  c #535B52",
":  c #60544E",
">  c #635652",
",  c #645955",
"<  c #695C56",
"1  c #665D5B",
"2  c #6A5E5A",
"3  c #4A6449",
"4  c #52654B",
"5  c #59694E",
"6  c #4E6352",
"7  c #556B5D",
"8  c #5B6E5D",
"9  c #586957",
"0  c #4E7E5C",
"q  c #5C7158",
"w  c #457845",
"e  c #6E625D",
"r  c #606E54",
"t  c #71635E",
"y  c #61765D",
"u  c #5A7163",
"i  c #5F776B",
"p  c #6D6463",
"a  c #636F62",
"s  c #716663",
"d  c #746A66",
"f  c #756C6C",
"g  c #796F6D",
"h  c #697867",
"j  c #7A726E",
"k  c #707C65",
"l  c #697B70",
"z  c #7D7574",
"x  c #7E7976",
"c  c #817572",
"v  c #807977",
"b  c #847C7C",
"n  c #887F7D",
"m  c #817778",
"M  c #1C9857",
"N  c #1C965D",
"B  c #1F9859",
"V  c #17945E",
"C  c #2A9E4B",
"Z  c #3A9145",
"A  c #39974B",
"S  c #2B8356",
"D  c #2B845B",
"F  c #2E8A5C",
"G  c #278456",
"H  c #328B5B",
"J  c #259D52",
"K  c #289F51",
"L  c #209959",
"P  c #2B9F58",
"I  c #2D9159",
"U  c #3B9455",
"Y  c #378E4B",
"T  c #2FA747",
"R  c #2CA34B",
"E  c #27A04F",
"W  c #31A646",
"Q  c #34A946",
"!  c #31A54B",
"~  c #3BAD4A",
"^  c #34AC49",
"/  c #27A052",
"(  c #2AA053",
")  c #2BA058",
"_  c #0D8A6A",
"`  c #138E63",
"'  c #118D68",
"]  c #169163",
"[  c #1A9360",
"{  c #199169",
"}  c #2E8961",
"|  c #298462",
" . c #328C65",
".. c #2F9F69",
"X. c #3B956D",
"o. c #399667",
"O. c #3E9A73",
"+. c #31A06A",
"@. c #3CA76A",
"#. c #35A366",
"$. c #42984C",
"%. c #529E55",
"&. c #4A8E53",
"*. c #42AF57",
"=. c #43AF58",
"-. c #48A158",
";. c #45B355",
":. c #49B353",
">. c #45B058",
",. c #4EB659",
"<. c #51B857",
"1. c #50B758",
"2. c #51B858",
"3. c #50B757",
"4. c #53A459",
"5. c #48886A",
"6. c #489674",
"7. c #5F8F6D",
"8. c #778977",
"9. c #718872",
"0. c #41AB66",
"q. c #57AA62",
"w. c #4FB26E",
"e. c #5EBE61",
"r. c #50B36F",
"t. c #48A070",
"y. c #60BF62",
"u. c #68B46C",
"i. c #67BF79",
"p. c #5FC162",
"a. c #73CA6F",
"s. c #68C07A",
"d. c #6DC474",
"f. c #73C972",
"g. c #7CCE74",
"h. c #78CA78",
"j. c #7BD074",
"k. c #87847C",
"l. c #83BA77",
"z. c #89D47C",
"x. c #87D37D",
"c. c #86C37A",
"v. c #867F80",
"b. c #7D8F85",
"n. c #79A78F",
"m. c #878080",
"M. c #8B8484",
"N. c #8D8A86",
"B. c #8E8788",
"V. c #8E8888",
"C. c #918583",
"Z. c #938886",
"A. c #948C8C",
"S. c #9A8F8D",
"D. c #908789",
"F. c #82978A",
"G. c #869987",
"H. c #9B918F",
"J. c #93928E",
"K. c #998E90",
"L. c #969291",
"P. c #9B9292",
"I. c #9E9B99",
"U. c #A29796",
"Y. c #A39997",
"T. c #A49B9A",
"R. c #A99E9E",
"E. c #98A899",
"W. c #9DB19A",
"Q. c #92A68C",
"!. c #A99EA1",
"~. c #97ADA1",
"^. c #ACA2A3",
"/. c #A4A3A3",
"(. c #B4ABAB",
"). c #B8ADAE",
"_. c #B0A6A6",
"`. c #ADB0AD",
"'. c #B6B0AF",
"]. c #B4B3B3",
"[. c #BCB3B3",
"{. c #BBBCBC",
"}. c #B8B8B8",
"|. c #C2BCBC",
" X c #81CE81",
".X c #8DC482",
"XX c #84D082",
"oX c #BEC2C1",
"OX c #C4CCCB",
"+X c #C9C8C7",
"@X c #CBD4D3",
"#X c #CDD9D7",
"$X c #D4D3D3",
"%X c #D3DDDC",
"&X c #DCDAD8",
"*X c #CDD1CF",
"=X c #E1DFDD",
"-X c #D3E0DF",
";X c #E2E1DF",
":X c #D5E0E0",
">X c #DDE9E9",
",X c #DBE5E5",
"<X c #DFF1F0",
"1X c #E2ECEC",
"2X c #EAEAE9",
"3X c #E5F4F5",
"4X c #E9F5F5",
"5X c #EDFEFE",
"6X c #E7F8FA",
"7X c #F2FEFE",
"8X c #FCFEFE",
"9X c #F4F4F3",
/* pixels */
"8X8X8X7X8X8X5X8X8X8X5X5X3X3X8X8X8X8X8X7X8X8X5X8X8X8X5X5X3X,X+X).).|.[.+X2X8X5X8X8X8X5X5X3X3X8X8X8X8X8X7X8X8X5X8X8X8X7X5X3X3X8X8X",
"8X8X8X5X5X5X5X3X4X8X7X5X3X8X8X4X8X8X8X6X>X:X:X%X,X2X#X@XOX+X)._._.^.^.{.&X>X#XOXOX&X3X5X3X8X8X4X8X8X8X5X5X5X5X3X3X8X5X5X3X8X8X4X",
"5X8X5X3X3X5X6X3X8X5X5X3X8X8X5X5X5X8X5X%X]./.~._.|.].Z.j z b Z.L.S.S.S.T.}.].A.j j I.#X3X8X8X5X5X5X8X5X3X3X5X5X4X8X5X5X3X8X8X5X5X",
"8X4X3X3X8X8X3X8X8X5X5X3X8X8X3X%X&XOX@XOXI.M.v.K.(.Y.e   + < z M.k.M.M.A.(.T.e + = x oX:X2X2X@X@X9X3X3X3X8X8X3X8X8X5X5X3X8X8X5X3X",
"8X8X5X5X5X8X4X8X7X5X6X7X8X4X$X(.C.b P.I.V.M.M.K.(.U.e     > z M.M.M.M.L.(.T.t : d M.L.(.|.'.M.J.&X8X5X5X7X8X4X8X5X5X3X8X8X5X5X3X",
"5X5X5X5X3X8X8X8X3X<X@XOX%X@X[.P.z s j v v.v.M.A.R.U.c < # , c N.M.M.M.Z.U.k.< : z N.M.L._.Y.t d `.#X%X>X1X8X8X8X3X5X3X3X5X5X5X8X",
"8X4X3X3X8X7X6X8X3X@XJ.b I.T.P.P.I.Z.d 1 p j v.B.A.P.U.C.< > c M.M.M.M.n d < : : z M.M.S.(.T.t = d b J.].2X5X4X7X3X3X3X8X5X5X3X3X",
"8X8X5X5X6X6X6X1X=X(.p > j v.M.J.^.P.1 @ , p z v.m.L.(.T.t : j b b b n j : + : t m B.A.U.Y.k.< @ = p m E.@X1X6X3X8X8X3X3X8X5X5X8X",
"8X5X5X5X4X3X<X@XP.t : : p z k.V.L.n < + @ , p z b L.(.Y.t # p f g f f p # : d b v.D.^.Y.j < # : d v M.L.[.*X>X4X8X8X7X4X8X8X5X5X",
"5X5X7X8X8X7X1XoXk.e # # > p z m.M.b d < # # , s z N.I.F.8 6 7 u u u u 7 : 2 m D.K.P.Y.Z.s > : t m M.M.S.^.|.+X%X3X5X5X4X8X4X3X3X",
"8X8X7X3X5X>X}./.Y.k.e   @ > p z b D.I.Z.< O # , p l 6.X.} D D } }  .| X 9 s b L.!.U.z s g z x m m.M.M.J.(.^.k.L.#X5X6X8X8X5X6X3X",
"8X4X3X3X-X{.L.L./.U.d < 2 p 2 p m K.^.P.a % $ 4 8 0 F M B B B M L L L H 5.a 9.b.E.G.1 : g M.M.Z.A.A.H.H.U.C.s v oX>X3X7X7X6X3X6X",
"7X8X5X@XJ.z m.N.K.A.b v.L.Z.e < z D.K.b.5.G G S U A ! R R R R R R R R R A $. .X.X.5.& # p z b A.^.(.(.U.j t j Z.).$X1X3X3X6X3X3X",
"5X5X5XOXj > j b b v.v.P.(.T.a 6 l 8.8.7. .M N ) *.<.1.3.3.,.,.,.<.<.,.,.2.>./ M M G w 4 7 l N.P.U.T.T.C.p e v A.R.}.&X1X8X8X5X6X",
"8X7X7XOXj = p f f z v.P.).E.6.S } o.-.~ ! R R *.a.z.z.z.z.z.z.z.x.z.z.z.XXf.>.R R R Z Y D 6.I.U.c e t s j v M.M.A.T.}.&X9X5X5X3X",
"8X9X;X`.f # , 1 1 p z C.P.F.X.V M ( @.<.<.,.1.e.f.z.z.z.z.z.z.z.z.z.z.z.z.j.p.,.:.,.<.>.P X.n.F.8 $ @ < v M.M.M.M.A.H.[.-X6X4X8X",
"8X;XI.t : @ # # @ > s f s 8 F M / ~ a.x.x.z.z.g.e.1.3.1.1.1.1.1.1.1.1.1.3.y.g.z.z.z.z.f.>.) o.o.D o 9 d b M.M.B.M.b d Z.@X6X8X8X",
"8X$Xc @   # = e e t 2 , 4 3 G / >.p.g.z.z.x.z.a.*.C C R R R R R R R R C R *.f.z.z.x.x.g.p.~ ) M B H u f n M.B.v.m f = j oX8X8X3X",
"7X$Xz +   = d k.H.Z.2 4 w A R >.f.j.p.,.<.<.,.>.P L L L L L L L L L L L M P >.2.<.,.,.e.j.f.>.R R $.u g b B.M.b p : @ j $X8X7X5X",
"8X+Xj @ = e v L.^.U.c r A ~ :.p.j.f.:.! R R R / L ] N [ [ [ V [ V [ [ [ [ L J R R R ^ :.f.j.p.:.~ $.5.h x b m d : + : v +X9X6X3X",
"8X@Xz # , p k.N.A.P.T.G.4.:.a.g.y.:.~ R J B L N N [ [ ] [ [ V V [ [ [ [ [ [ L L L J R ~ :.y.c.a.:.W A &.k d 2 = @ = f Z.).$X<X4X",
"7XOXz # e f x m.M.A.!.E.u.2.g.f.*.R R P B [ [ [ [ [ L L L L L L L L L L N [ [ [ N N ( R C *.a.g.y.:.~ A 8 1 , > > e m L._.+X1X8X",
"8XOXj ; 1 f f z k.D.J.Q..Xj.p.>.P L L L N [ [ [ N L J ! C ! R R R ! C J B [ [ [ [ N L L L P *.y.g.a.:.Z 4 > f v x m m.L._.+X,X3X",
"9X|.x , 1 1 1 p j z z k.c.f.>./ L V [ [ [ N B L L P =.2.1.3.3.,.1.2.2.>.P L L L [ [ [ [ ] L J *.f.g.p.%.5 1 v M.V.M.M.Z.H.'.,X8X",
"{.P.m.f , # # : > > > r %.>.) N N [ [ [ [ L J R R *.f.z.z.z.z.z.z.z.z.a.*.C R J L V N ] [ N L P :.2.x.l.d s b M.N.B.M.b d Z.#X1X",
"I.b M.b p : @ O + + - w A / N [ ] N L L B P =.2.1.e.g.z.z.z.z.z.z.z.x.g.e.,.<.*.P L L L N [ ] L J *.a.l.8.8.b m v z z j s k.OX+X",
"M.j m.M.b d : O   - w A J L N [ [ L P C C *.f.z.z.f.e.,.1.1.3.3.3.1.1.e.g.z.z.f.*.R R P L ] [ N L P *.y.x.l.8.s 2 : > d Z.^.{.(.",
"j p z m.M.b f e t y $.R L [ [ [ L J ! ~ :.e.g.z.z.a.*.R C R R C C R R *.f.z.z.g.e.:.~ ! J L [ [ V L C :.g.l.k 1 > > : d P.).[.T.",
"d : p z v.V.P.T.U.G.-.R B [ [ L P ! W :.a.g.e.1.<.>.P B L L L L L L L P >.<.3.y.g.a.:.W ! ( L [ [ L ! ~ :.%.5 , f v v b A.T.).T.",
"1 # , p x V.!.(.|.W.q.C B [ [ L R ~ :.y.g.f.*.R R J L [ [ ] [ [ [ [ [ L J R R =.a.x.2.,.~ R L [ [ L P ! ^ A 4 2 v M.M.M.M.Z.P.N.",
"# + # , p x B.!.(.E.t.M N [ [ L C :.a.g.y.*.) L L L N [ [ ] N [ [ [ [ [ L L L ( *.p.g.f.:.R B [ [ [ B J ! A 8 d b Z.M.M.M.b d e ",
"+ + + # , p f v.S.G.6.V V N N ) *.y.g.a.*.J N [ [ [ [ N L L L L L B N [ [ [ ] V J =.f.g.e.*.) L N [ [ L ! $.a f b M.M.k.b d =   ",
"@ + + + # # : , 2 8 F [ V M E >.a.x.2.*.P N ' ' ] [ [ L J R R R C J B V [ ] ' ' N P *.e.g.a.*.C L [ [ L ! $.u j v.V.N.b e = +   ",
"> = > < > < e < # % G [ [ B R ,.z.XX1.J N ` ' ' N L L P :.1.1.3.2.>.P L L L ' ' ' N J >.z.z.3.R L [ [ L R U q p j z z j s t t e ",
"f p g z v n P.C.< $ D [ [ L R ,.z.x.0.N ' ' ` L P R C =.f.z.z.z.z.f.*.R R P L ' ' ` V 0.XXz.2.C L [ [ [ N S 6 : > > > d Z.Y.Y.Z.",
"z p b D.M.A.!.Y.c 8 D N B ) *.p.g.d.#.` ' ' ` L R ~ :.e.g.z.z.z.z.g.y.:.~ ! L ] ' ' ] ..d.g.y.*.) L N [ V X 6 : : > : d P.).[.R.",
"s 1 v M.M.B.A.P.U.F.X.B E >.a.j.e.*.P ] ] ] [ L R :.a.g.e.3.3.3.1.y.g.a.:.C L V ] ] [ P *.y.g.f.>.J B [ [ } 7 p z z z b A.Y.).Y.",
"t : g k.M.M.M.L._.~.6.M R 2.x.x.>.J N ] [ N L P *.e.g.f.*.C R R R =.f.g.y.*.P L N [ ] N J >.x.z.<.! B [ N } u j b B.M.M.M.H.(.U.",
"p # p z k.M.M.H.(.~.6.M R ,.z.XX0.V ' ' [ B J *.f.g.y.*.P L L L B P *.e.g.f.=.J L [ ' ` V 0. Xz.<.! L N [ } u f b B.M.M.M.H.(.U.",
"2 = 1 p z m m M.P.F.X.M R <.x.XX@.` _ ' ] L ! 3.z.z.3.R L ] ] ] ] B R 3.z.z.1.! L ` ' _ ` @. Xz.<.( L [ [ F 7 p v b k.m z k.H.M.",
"# = e p , 1 d f s 8 F B R <.z.h.@.` _ _ [ L C 3.z.x.3.R M ] ' ` ] L R 3.z.z.1.R L ` ' _ ` @.x.z.2.R B [ [ D 6 > s f f d 1 , 2 < ",
"# # , < @ @ , , @ % X B R <.z. X0.` _ _ ] L ! 2.z.x.1.R L ] ' ' ] L C 3.z.z.1.! L ] ' _ ` @.h.z.2.R B [ [ D 6 1 1 1 1 2 p e e , ",
"< + # @ + + @ @ @ & D B R <.z. X@.` _ ' ] J R 3.z.z.1.C M ] ] ] [ L R ,.z.z.1.! L ] ' _ ` @. Xz.2.R L N [  .i f 1 @ @ 2 C.T.Y.k.",
"j : > 1 e p p 1 # % G B R <.z.XX@.` _ _ ] L J *.a.g.y.=.P L L L L ) >.2.g.f.=.J L ` _ _ ` @. Xz.2.R L [ [  .b.m s > > f U.).|.R.",
"M.z z n H.Y.T.C.< $ S B R 2.XXXX@.` _ _ ] L L P *.e.g.f.*.R C C R =.f.g.y.*.P L N ] ' _ ` @. Xz.2.R B [ [ o.b.M.b z z b Z.T.)._.",
"M.b M.A.R.(.(.U.c 8 D B / >.f.h.w...{ _ ` ] ] L R :.a.g.e.1.1.1.1.y.g.a.:.R L [ ] ` ' { ..r.h.a.>.( N N [  .9.x b m.M.m.m n S.S.",
"f z M.B.A.K.L.I.T.F.O.V B ) ~ p.f.s...] ' ' ] L ! ~ :.e.g.z.z.z.z.g.y.:.~ ! L ] ' ' ` ..i.h.e.*.) N N [ N } i f f x M.b e , < s ",
"p d x b M.n v n P.G.X.[ [ B R <.z.XX@.` _ _ ` } J R R *.f.z.z.z.z.f.*.R R J N ` ' _ ` @. Xz.3.R L [ [ N N H 7 2 1 p j d : # < e ",
"z p f j n m p < 2 8 H [ ] B R <.z. X@.` _ _ _ ' [ L L P *.2.2.1.2.>.P L L N ' _ _ _ ` @. Xz.3.R B [ [ L C Y 4 # # = > = @ < Z.S.",
"f p p f z d :     & G V [ B J >.a.h.r...' _ _ ' ' [ ] L K ! R ! ! J L [ ] ` _ _ _ { ..r.h.a.=.P B [ [ L R $.5 < > < 2 < @ < Z.S.",
"> ; 1 p 2 : @ O   $ X N [ N L ) *.e.h.i...' _ _ ' ' [ N L L L L L L [ ] ' ' _ _ ' ..i.h.e.*.P L N [ [ L R -.9.c z n K.C.< @ < e ",
"+ # , 1 # # < t t y H B N [ [ L R :.f.h.r...] _ _ ' ] ] ] ] ] ] ] ] ] ` ' _ _ { ..w.h.a.:.R L [ [ N N / T -.9.Z.M.K.^.T.c < @   ",
"+ @ # @ + < C.Y.T.G.-.E N [ [ L R ~ :.e.h.i...` ' ` ' ' ' _ _ _ ' _ ' ' ` ` ` ..i.h.e.:.~ C L [ [ L ( ! T -.8.M.M.B.A.P.Y.C.1   ",
"# @ > > > f I.).[.W.q.R L [ [ L P ! W :.a.h.r.@.0...] _ _ _ _ _ _ _ _ { ..0.@.r.h.a.:.W ! P L [ [ L R ~ :.q.8.b M.M.M.A.^.Y.c < ",
"1 : d m z b Z.T.).W.q.R B [ [ N L J ! ~ :.y.h.XX Xi...` ` ` ` ` ` ` ` ..i. X Xh.e.:.~ R J L N [ [ B R :.a.l.8.z v.M.M.B.A.I.Y.C.",
"2 > z B.M.M.M.A.R.E.u.>.( N N [ N L J R R *.f.z.XXh.r.@.@.@.@.0.@.@.@.w.h.z.z.a.*.R R ( L [ [ [ N ) >.p.j.l.k s z v.M.k.z k.H.C.",
"# , v V.M.M.M.D.A.Q.x.a.*.C M [ [ N L L L P >.2.1.e.h.XX X X X Xx. X Xh.e.3.<.>.P L L L [ [ [ B J =.f.j.e.%.5 , p z M.m e , 2 < ",
"# : f z v c z c j k.c.j.p.*.P M N [ [ [ ] L J C R *.a.z.z.z.z.z.z.x.z.a.*.R R J L [ ] [ [ [ L P >.p.g.f.:.Z * @ , p g g s e e < ",
"< @ : > > > : > , q 4.p.g.f.*.J N V [ N [ L L L B P >.2.1.1.1.1.,.3.1.>.P L L B L [ [ [ [ L J =.a.g.e.:.~ Z 3 @ @ : : s C.Y.U.M.",
"j : > > > < e < :   Z :.f.g.y.*.P L L L [ [ ] [ [ L J R R R R R R C R J L [ [ V [ [ L L L P =.y.x.a.:.^ R Y 4 : > > > f U.(.|.R.",
"C.z z z z b L.C.< * Z ~ :.p.g.f.=.R R P L [ [ [ [ N B L L L J L L L L L N [ [ [ ] L P R R =.f.g.2.:.~ ! ) F 7 p g v z b Z.U.).^.",
"M.b b k.M.K.^.P.t 3 Y R W :.f.g.y.:.~ ! J L L L N [ [ [ [ [ [ [ [ [ [ N [ N L L L J ! ~ :.e.g.f.:.Q R / [ | 7 d m b M.M.M.Z.P.L.",
"f j f z v.Z.S.n < $ S / R ~ :.e.g.f.:.W ! ( ! P L [ [ [ N [ [ [ N [ [ [ [ L P ! ! ! W ,.a.g.e.:.~ R J N _ . 6 , s z M.M.M.b d s ",
"1 p p f b M.M.c , $ D L ! W W ,.z.z.1.Q Q ~ ^ ! L [ [ N [ [ N N [ [ [ [ [ L ! Q Q Q W 1.z.z.,.W ^ ! L ] _ . % # 1 f b N.M.c : # "
};
