/* XPM */
static char *result[] = {
/* columns rows colors chars-per-pixel */
"64 64 211 2 ",
"   c #54463F",
".  c #386E51",
"X  c #564942",
"o  c #594C46",
"O  c #5B4E49",
"+  c #4B5E41",
"@  c #485847",
"#  c #5E524C",
"$  c #555746",
"%  c #60544E",
"&  c #635652",
"*  c #645954",
"=  c #695C56",
"-  c #665D5A",
";  c #6A5E5A",
":  c #4C614F",
">  c #4D6043",
",  c #55664A",
"<  c #4C6150",
"1  c #5A6D55",
"2  c #5B6D5B",
"3  c #54695A",
"4  c #5D735D",
"5  c #5F7257",
"6  c #6E625D",
"7  c #676A55",
"8  c #71635F",
"9  c #627257",
"0  c #64755A",
"q  c #626A4F",
"w  c #597165",
"e  c #5F776B",
"r  c #6D6464",
"t  c #716663",
"y  c #746A66",
"u  c #756C6C",
"i  c #796F6D",
"p  c #736668",
"a  c #687A68",
"s  c #7A726E",
"d  c #727C66",
"f  c #7D7574",
"g  c #7E7976",
"h  c #677E70",
"j  c #817572",
"k  c #807977",
"l  c #847C7C",
"z  c #887F7D",
"x  c #827778",
"c  c #1C965D",
"v  c #1F9859",
"b  c #16935F",
"n  c #388E45",
"m  c #269E4F",
"M  c #3B9246",
"N  c #3D954B",
"B  c #3B9448",
"V  c #2B845C",
"C  c #2A875A",
"Z  c #259D53",
"A  c #289F51",
"S  c #209859",
"D  c #2B9F58",
"F  c #3C9851",
"G  c #338B5A",
"H  c #2FA646",
"J  c #2CA34B",
"K  c #30A646",
"L  c #3BAD4A",
"P  c #32A949",
"I  c #29A052",
"U  c #2CA058",
"Y  c #26A051",
"T  c #0D8A6C",
"R  c #0F8C67",
"E  c #128E67",
"W  c #118D68",
"Q  c #179163",
"!  c #1A9360",
"~  c #2F8861",
"^  c #338D65",
"/  c #369069",
"(  c #3A956A",
")  c #41974C",
"_  c #41994D",
"`  c #528959",
"'  c #489B53",
"]  c #519E55",
"[  c #529158",
"{  c #46854C",
"}  c #648156",
"|  c #42AE57",
" . c #4CA45A",
".. c #43AF58",
"X. c #4CA65B",
"o. c #54A35A",
"O. c #55A85B",
"+. c #47B353",
"@. c #4AB454",
"#. c #4DB857",
"$. c #45B058",
"%. c #4FB758",
"&. c #4FB958",
"*. c #50B758",
"=. c #51B858",
"-. c #50B757",
";. c #5B9B63",
":. c #429C74",
">. c #459D6C",
",. c #6B8168",
"<. c #70916B",
"1. c #71897D",
"2. c #7B8573",
"3. c #7D9479",
"4. c #6B8375",
"5. c #58AA61",
"6. c #5EBE61",
"7. c #5FB264",
"8. c #4CA260",
"9. c #62B468",
"0. c #61BB63",
"q. c #7CB36E",
"w. c #7EB572",
"e. c #5AC05F",
"r. c #5DC061",
"t. c #73C96E",
"y. c #72C870",
"u. c #7ACD73",
"i. c #89817E",
"p. c #85857F",
"a. c #819F6C",
"s. c #88A97D",
"d. c #82BA77",
"f. c #92BE7C",
"g. c #89C57A",
"h. c #86D47B",
"j. c #89D47C",
"k. c #88D87D",
"l. c #867F80",
"z. c #887E80",
"x. c #7F9580",
"c. c #878080",
"v. c #8B8484",
"b. c #8D8A85",
"n. c #8E8788",
"m. c #8E8888",
"M. c #918583",
"N. c #928886",
"B. c #948C8C",
"V. c #968B8C",
"C. c #869B82",
"Z. c #879986",
"A. c #9B908F",
"S. c #93928E",
"D. c #988E91",
"F. c #978E90",
"G. c #969291",
"H. c #9B9292",
"J. c #9E9B99",
"K. c #A29796",
"L. c #A39897",
"P. c #A49B9A",
"I. c #A5999A",
"U. c #95A896",
"Y. c #9CB29A",
"T. c #8CA78C",
"R. c #A2A79A",
"E. c #A99FA0",
"W. c #97ADA1",
"Q. c #ABA2A3",
"!. c #A4A3A3",
"~. c #B3AAAB",
"^. c #B8ADAE",
"/. c #B0A7A7",
"(. c #ADB0AD",
"). c #B6B0AF",
"_. c #B5B3B2",
"`. c #BCB3B3",
"'. c #BCBCBB",
"]. c #B8B8B8",
"[. c #C2BDBC",
"{. c #95CA84",
"}. c #8DD380",
"|. c #A5E38F",
" X c #BEC2C1",
".X c #C4CCCA",
"XX c #C8C7C7",
"oX c #CBD4D3",
"OX c #CDD8D7",
"+X c #CCD9D7",
"@X c #D4D4D3",
"#X c #D3DDDC",
"$X c #DCDAD8",
"%X c #CDD1CF",
"&X c #E1DFDD",
"*X c #D3E0DF",
"=X c #E2E1DF",
"-X c #D5E0E0",
";X c #DBE5E5",
":X c #DCE8E8",
">X c #DCE8E7",
",X c #DFF1F0",
"<X c #E2EDED",
"1X c #EAEAE9",
"2X c #E5F4F5",
"3X c #E9F5F5",
"4X c #EDFEFE",
"5X c #E7F8FA",
"6X c #F2FEFE",
"7X c #FCFEFE",
"8X c #F4F4F3",
/* pixels */
"7X7X7X6X7X7X4X7X7X7X4X4X2X2X7X7X7X7X7X6X7X7X4X7X7X7X4X4X2X;XXX^.^.`.^.XX1X7X6X7X7X7X4X4X2X2X7X7X7X7X7X6X7X7X4X7X7X7X6X4X2X2X7X7X",
"7X7X7X4X4X4X4X2X3X7X6X4X2X7X7X3X7X7X7X5X:X-X-X-X;X1X+X%X.XXX^././././.].$X:X#X.X.X&X2X4X2X7X7X5X7X7X7X4X4X4X4X2X2X7X4X4X2X7X7X3X",
"4X7X4X2X2X4X5X2X7X4X4X2X7X7X4X4X4X7X4X-X_.!.W./.[._.m.s f i.N.H.A.S.B.P.]._.b.s s G.+X2X7X7X4X5X4X7X4X2X2X4X4X2X7X4X4X2X7X7X4X4X",
"7X3X2X2X7X7X2X7X7X4X4X2X7X7X2X#X$X.X+X XJ.v.z.D.~.L.6 X X * f v.v.v.v.F./.P.6 o & g  X-X1X1XoXoX8X2X2X2X7X7X2X7X7X4X4X2X7X7X4X2X",
"7X7X4X4X4X7X3X7X6X4X5X6X7X3X@X~.i.z H.P.B.v.v.F.~.L.6     * f v.v.v.v.D.~.I.8 % u p.H.~.[.).i.S.$X7X4X4X4X7X2X7X4X4X2X7X7X4X4X2X",
"4X4X4X4X2X7X7X7X2X,XoX.X#XoX`.H.j t s k l l v.F.P.K.j = O * f v.v.v.v.B.K.i.7 & f b.v.F.~.L.8 y (.+X#X>X:X7X7X7X2X4X2X2X4X4X4X7X",
"7X3X2X2X7X6X5X7X2XoXS.l J.P.H.H.K.N.y - r f l.m.B.H.H.M.= & j v.v.v.v.z y = o & f v.v.A.~.L.8 # y l S.].1X4X2X7X2X2X2X7X4X4X2X2X",
"7X7X4X4X5X5X5X<X&X~.r & s l.v.S.!.H.; o & r f l.v.A.~.I.8 % s z l l z.i % X % 8 g m.B.H.L.M.= o # r k J.oX2X5X2X7X7X2X2X7X4X4X7X",
"7X4X4X4X2X2X2X+XH.8 # # r f p.m.S.z *   O & p i z H.^.I.8 # r i u u u r O % y x l.B.Q.K.s = O % y k z H.`.%X>X2X7X7X7X2X7X7X4X4X",
"4X4X6X7X7X6X<X Xi.7 # o & r f l.v.l u = # O & p f p.U.C.9 : 1 4 4 4 w 2 % * g B.F.H.K.N.t & % 8 l v.v.F./.[.XX#X2X4X4X2X7X2X2X2X",
"7X7X6X2X4X:X].J.P.M.= X o & r f l N.L.i.= X o & r a ;.X.) M M ) _ _ _ { 1 p l F.E.K.j t i f f l i.v.v.S./.Q.i.S.#X4X2X7X7X4X5X2X",
"7X3X2X2X-X'.G.F.Q.H.i * ; 6 - p l A.Q.G.0 + + 1 d <.O.&.&.&.%.%.=.=.=.O.<.2.1.3.U.C.- # i l.v.m.B.B.A.H.K.M.y k  X:X2X6X4X4X2X5X",
"6X7X4XoXS.g 2.n.F.N.l z H.M.; - g N.G.p.[ n n ] d.{.g.h.j.j.h.h.h.h.h.}.{.d.5. .O.[ $ # r f p.B.Q.~.~.K.s t i N.^.@X,X2X2X4X2X2X",
"4X4X4X.Xs * f l.l l v.H.~.R.a , ,.p.Z.s.7.#.#.r.u.h.h.h.j.j.j.h.j.j.h.h.h.u.6.#.#.o.} 7 9 a b.H.K.I.L.N.8 ; k B.R.].$X<X6X7X4X5X",
"7X6X6X.Xs % r u u f z H.^.R.;.M F 5.g.{.j.h.h.u.6.%.-.-.-.-.-.-.=.=.=.%.%.6.u.h.h.j.g.q.] ;.U.P.j ; 8 t s l z.v.V.I.[.@X8X6X4X2X",
"7X8X=X(.r O - - - r f v.H.C. .L +.6.u.h.h.j.h.y.| J J J J J J A J J J J J L y.}.h.h.j.u.r.7.T.C.9 + o = x n.v.v.v.B.H.).#X5X3X7X",
"7X=XJ.8 % O O O o & p u t 1 ) +.t.u.=.=.=.=.=.$.D S S S S S S S S S S S S D $.=.-.%.&.r.u.u.7. .N { 1 p l v.v.v.v.l y b..X2X7X7X",
"7X@Xj o   $ % = 8 8 ; - 7 0 o.6.u.t.| J J J J I S ! ! ! ! ! ! ! ! ! ! ! ! S A J J J J | y.u.r.&.&.o.a p l v.v.v.l y # s .X7X7X3X",
"6X@Xf X X # y i.A.M.= 7 a.g.j.u.r.$.D c S S S S c ! ! ! ! ! ! ! ! ! ! ! ! ! S S S v c D $.6.u.h.k.w.d u l v.v.x r # o s %X7X6X4X",
"7XXXs o O 6 k H.E.K.j d d.k.j.t.$.J v b ! ! ! c S S S S S S S S S S S S S S ! ! ! c c c m $.t.j.k.g.3.g l l l y # o # l XX8X4X2X",
"7X#Xs O * r p.m.F.H.K.T.9.&.&.$.D S ! ! ! ! ! S A P J J J J J J J J J J J A S ! ! c ! c S D ..-.#.6.g.s.2.y - % o # y m.).@X<X3X",
"4X Xg # 6 u g l.c.F.E.U.O.H J Y c Q ! ! S S S Z J L @.=.*.-.%.%.*.=.*.@.L J Z S S c ! ! Q c D J K +.t.d.d * * & & 6 l H.~.XX<X7X",
"7X.Xu # r p u f l n.G.x.X.J Z c E W Q S I J I J H | y.j.j.j.j.j.j.j.j.y.+.K J J J A S E W E ! Z J L @.o., * u f f l v.F./.XX>X2X",
"1X Xg & - - - r f j x ,.' Y v Q W E c Z P L @.=.%.6.u.j.h.j.h.j.j.j.j.u.6.*.-.%.L J A c W W Q S I P P M , ; x N.v.v.v.N.H._.;X7X",
"[.J.z u * O # # & & & 3 C v c ! Q ! D J K +.t.j.j.u.0.&.%.-.-.%.*.*.-.=.h.j.j.t.+.K J A c Q ! c v Z J N 1 p l v.v.m.v.l y M.+X4X",
"J.c.v.l 6 % o X X X $ . V Q ! ! S D $.-.%.6.u.j.j.y.| J J J J J J J m | y.j.j.u.6.*.*.$.D S ! ! Q c I F ` a g l k f f s t i.XX>X",
"c.f l.c.l y #     @ . C E W Q v m | t.j.j.u.6.%.*.$.D v c S S S S S S D | -.*.0.u.j.j.y...m c ! W W c D F ` a u ; % & y N.R.].[.",
"f r f c.v.z u t 6 4 C R R E c U | 0.u.j.j.y.| J J A c ! ! ! c ! ! ! c c A J J | y.j.j.u.6...U c E W ! S I F 1 - * & % y K.^.`.`.",
"t & r f c.m.H.I.I.Z.( Q Q c A $.t.u.0.*.*.$.D S v c c ! ! ! ! ! ! ! ! c c c S U ..*.*.6.u.y.$.Y c Q Q ! v C : * y f f l n.I.~.`.",
"- o * r g m.E.^.`.W.:.c v Z J *.j.j.=.K H I c ! c c S S S S S S S S S S c c c S A J K *.j.j.=.J Z S ! ! ! V : ; l m.v.v.v.N.H.L.",
"# X O & r g m.P.^.W.:.c Y J H &.j.j.=.J A c c ! c c m J J J J J J J J A c ! ! c c A P =.j.j.&.J P I S ! ! ~ 3 p l v.v.v.v.l y 8 ",
"X X X O * r u z A.Z.( c J L +.r.u.y.$.A c c c S c D $.*.*.*.*.*.*.*.*...D c c ! ! c A $.y.u.6.+.L J D ! ! ~ w u z m.v.i.l y %   ",
"X o X o O O & & ; 4 ~ v J +.t.h.6.| D c c S A J J $.y.j.j.j.j.j.j.j.j.y.| m c c ! c c D | 6.u.u.@.J S c ! ~ w u l.m.m.l 6 # o   ",
"& # & * * = ; = O @ C Z J -.j.j.*.J S ! S D J L @.=.u.j.j.j.j.j.j.j.j.u.0.| D c c ! ! S m *.j.j.-.J Z c c V 3 r f j j s t 6 6 8 ",
"u r u f j z H.M.=   n J K -.j.j.*.A S S D J K @.t.h.0.-.-.-.-.-.*.%.%.0.u.t.| m c c c S J -.j.j.*.K J A c V < % & & & t N.L.L.L.",
"f t z v.v.F.Q.K.g 5 ) L %.=.t.y.| A S S J L +.0.u.t.+.K J J J A J J K +.t.u.6.| D c c c m $.y.u.6.+.L J c ~ < % % & % y K.^.).`.",
"y - k v.v.m.B.H.L.s. .+.y.u.6.| U S ! S K @.t.u.6.+.L A Z S S S S Z J L @.0.u.t.$.A S c c U | 0.u.t.+.J v ~ 3 r s f f l N.P.~.`.",
"6 # u v.v.v.v.D.^.Y.5.+.h.j.%.m S c ! S J -.j.j.%.K K A ! E Q Q E c D J K -.j.j.-.J S ! c v J -.j.j.%.J v ~ w u z b.v.v.v.B.Q.`.",
"6 O 6 f z v.v.D.~.Y.5.@.h.j.*.J c ! ! S A -.j.j.-.A A c W T T T W E c Z J *.j.j.-.J S E c c m -.j.j.*.J v ~ w u z v.v.v.v.A.~.`.",
"6 O r r f x l v.H.C.X.&.h.j.*.J S ! c S K -.j.j.-.A S Q T T T T T W ! S J =.h.h.-.J S c c v J -.j.j.*.J v ~ 3 p f l.l l f z F.L.",
"# # r r * - p u t 9 ) -.h.h.*.J S c ! S A %.j.j.*.J S Q T T T T T T E S J *.j.j.%.J c c ! c J -.h.h.#.J v . < & t u s r - * ; 6 ",
"o o * & o o * * O + M &.h.j.*.J S ! ! S H %.h.j.*.J S Q T T T T T T ! S J *.h.j.-.J c c c S J -.h.k.#.J v V 3 = * r - - r 6 6 6 ",
"- X O o X X o o o + M &.h.h.-.J S ! ! S A -.h.h.*.J S Q W T T T T T E S J -.j.j.-.A S c c c J -.h.h.+.J v / h y * O o 6 N.L.K.K.",
"s % % 7 6 t r - O + M *.h.h.*.J v ! ! S K -.j.h.*.J Z S W T T T T E ! S J -.j.j.-.J c ! c c J %.h.h.e.Y v / 1.l r & & y K.~.`.`.",
"v.f f z F.L.I.M.=   B &.j.j.*.J c ! c S A -.j.j.*.K J A c ! E ! ! E c v J %.j.h.-.J S c ! S J %.j.j.=.J v / 1.v.l f f l N.P.~.[.",
"v.l v.F.Q.~.~.K.j 0 L +.t.u.6.| U c c c A @.t.g.0.+.L J Z S S S S S S D | 6.u.y.+.A c c c D | 0.u.t.@.J v / 4.l.l p.v.v.k l V.K.",
"y f l.m.B.H.H.H.I.Z.X.L +.6.u.y.| m S c c U | =.u.t.+.K A H A K J J m | y.u.0.| D S c c A +.t.u.r.+.L P v ~ a u u f v.k 6 * = 8 ",
"r u g z v.c.x z H.Z. .J H %.j.j.*.J S ! ! S A +.t.u.0.%.%.%.%.%.-.-.-.6.u.t.@.J S ! ! S A -.j.j.&.J J Y ! ~ 3 - - r s y % O = 8 ",
"f r r f z l 6 * ; a D v J &.j.j.*.J c c ! c c D | 6.u.j.j.j.j.h.h.j.j.u.0.+.L J c ! c S J =.j.j.*.J Z c ! C < O O % % # o = M.I.",
"u r r u f y # X   @ C v J @.y.u.6.| U S c ! c c J +.t.j.j.j.j.j.j.j.j.t.+.P J D S c c U | 0.u.t.@.J S ! ! V 3 & & = 6 = O = N.I.",
"& & r r = % o     @ . v J L +.r.u.y.| A c c c S H | +.=.-.-.-.-.*.*.=.%.L J Z S c c A $.y.u.6.+.L J S ! b ~ h f j z A.M.7 o 6 8 ",
"X O * & O O = t 8 2 ~ b U P K &.j.j.*.H S c c c A J J J J J J A J J J J J I S ! c Z J *.j.j.-.K P I S ! c / 1.N.v.F.Q.L.j = o   ",
"X X O o o * N.I.P.x.( c c Z J %.j.j.-.P A A S c c S S S S S S S S S S S S S ! S A J K -.j.j.*.J Z S ! ! ! ( 1.v.v.v.F.H.K.z.=   ",
"o $ % & & u H.^.`.W.:.Q b v A | t.u.0.*.-...D S S S c ! ! ! ! ! ! ! ! c c S S U | *.*.0.u.y.$.A ! Q Q v v / 4.z v.v.v.B.R.I.j 8 ",
"- % y g f z N.P.^.W.( Q R W c D | 6.u.h.j.t.$.J A m S c ! c c c ! c ! c A J J | y.j.h.u.6.| D ! E W Q S Y F a f z.v.v.v.V.K.L.I.",
"- & g n.m.v.v.B.E.U.>.c E W ! c m $.t.h.k.g.=.%.-.$.D S c S c S c v v D $.=.*.r.u.j.j.t...A S Q W E ! U +.o.4 r f v.v.z j z A.L.",
"O * k b.N.v.v.n.F.x. .A c ! ! ! S D ..-.-.6.h.j.j.t.+.m A J K A J A J | t.j.j.u.6.%.*.| D S ! ! E c J $.t.d.7 & r f v.x 6 & 6 6 ",
"O % u f f f j j f ,.' J Z c ! ! Q c D J K +.t.j.j.u.0.-.-.-.-.-.-.-.-.6.u.j.j.t.+.P J A c Q ! ! v A J *.j.g.7 o & r i s t 6 6 6 ",
"= o # * * * % & * 1 M P P I S Q W E c D J L @.-.-.=.u.j.j.j.j.j.j.j.j.t.0.*.=.@.L P Z c W W ! S I J K #.j.f.7 o o O % t M.L.K.K.",
"s % & * & * 6 = O , ] +.L J Z c E W E S A J J J K @.t.j.j.j.j.j.j.j.j.t.+.K J J J D S Q W W c Z P L +.e.g.d.0 O & & & u H.^.`.`.",
"M.f f j f z A.M.= q q.y.@.P J A S Q Q c S S S Z J | +.-.=.=.=.-.=.=.=.@.L P Z S S S ! ! Q c A J K +.t.u.6.8.a r i f f l N.P.~.].",
"v.l z p.v.D.Q.F.6 q q.u.6.&.*...D S ! c ! ! ! S I P K A J A A J J J A J J A S ! ! c ! c S U | *.%.6.u.y.L N 3 t x z.v.v.v.N.A.L.",
"p u u f z n.F.z = > ] e.y.j.j.y...A S ! ! ! ! c S S S S S S S S S S S S S S ! ! ! ! ! S A ..y.h.h.u.6.$.U C < * r f p.v.v.l y 8 ",
"6 r r u l v.v.f = + n %.j.|.|.h.=.J S ! ! ! ! c ! ! ! c ! ! ! ! ! ! ! ! ! ! c ! ! c ! S J *.j.|.|.h.@.J v V @ O - u l N.v.f &   "
};
