/* XPM */
static char *_7967aeac3234e7d949eb99f57787815qAZA7zNFrXpu3B6U[] = {
/* columns rows colors chars-per-pixel */
"64 64 165 2 ",
"   c #171533",
".  c #1B1734",
"X  c #1D1A36",
"o  c #1E1D38",
"O  c #221B36",
"+  c #281E37",
"@  c #221E38",
"#  c #281F38",
"$  c #3D1E33",
"%  c #1E2037",
"&  c #1F2039",
"*  c #24223B",
"=  c #2A243D",
"-  c #26293E",
";  c #2C2A3F",
":  c #3D2236",
">  c #3E2439",
",  c #31283D",
"<  c #3F2939",
"1  c #421D2F",
"2  c #431E33",
"3  c #442235",
"4  c #482437",
"5  c #452639",
"6  c #492639",
"7  c #452A3B",
"8  c #4A2B3D",
"9  c #46303F",
"0  c #4B303F",
"q  c #2C2A41",
"w  c #322D45",
"e  c #382F44",
"r  c #2F3045",
"t  c #2B3E42",
"y  c #333245",
"u  c #393347",
"i  c #303E42",
"p  c #343348",
"a  c #3A3348",
"s  c #452C40",
"d  c #4C2E40",
"f  c #463241",
"g  c #4D3342",
"h  c #4D3946",
"j  c #4D3649",
"k  c #4E3B49",
"l  c #523446",
"z  c #543749",
"x  c #543A4C",
"c  c #583C4E",
"v  c #553F50",
"b  c #2C4545",
"n  c #2D4847",
"m  c #2F4B4A",
"M  c #334446",
"N  c #384346",
"B  c #354548",
"V  c #3A4549",
"C  c #354B4B",
"Z  c #3B4B4C",
"A  c #3D4D51",
"S  c #3E5252",
"D  c #3E5658",
"F  c #3D5859",
"G  c #424B4F",
"H  c #58494F",
"J  c #424E52",
"K  c #574153",
"L  c #5C4F52",
"P  c #425355",
"I  c #5D5455",
"U  c #5C5857",
"Y  c #5E5A58",
"T  c #615656",
"R  c #625957",
"E  c #615758",
"W  c #645C5A",
"Q  c #67605F",
"!  c #68605F",
"~  c #5E5D64",
"^  c #656163",
"/  c #696362",
"(  c #656569",
")  c #6C6569",
"_  c #666B6C",
"`  c #6B6A6D",
"'  c #716E6E",
"]  c #71706F",
"[  c #6E6C71",
"{  c #746D72",
"}  c #6E7072",
"|  c #6E7278",
" . c #767676",
".. c #787777",
"X. c #777877",
"o. c #787877",
"O. c #777678",
"+. c #787778",
"@. c #777878",
"#. c #7B797B",
"$. c #81727F",
"%. c #7C7D81",
"&. c #857684",
"*. c #887786",
"=. c #837B82",
"-. c #887987",
";. c #857B89",
":. c #8B7B8A",
">. c #7D8284",
",. c #82868B",
"<. c #8D828E",
"1. c #80898C",
"2. c #90838F",
"3. c #8F8491",
"4. c #8F8B96",
"5. c #8F8999",
"6. c #928593",
"7. c #958996",
"8. c #988897",
"9. c #978798",
"0. c #978A98",
"q. c #9A8B9B",
"w. c #87909E",
"e. c #96919F",
"r. c #8494A1",
"t. c #8897A5",
"y. c #849AA4",
"u. c #8A9CA4",
"i. c #899DA7",
"p. c #889BA9",
"a. c #8F9EA9",
"s. c #8D9DAB",
"d. c #9892A1",
"f. c #9F90A1",
"g. c #9A91A0",
"h. c #85A1AB",
"j. c #8CA1AA",
"k. c #8EA2AC",
"l. c #8EA6AF",
"z. c #8EA5AE",
"x. c #8DA3AD",
"c. c #91A1AF",
"v. c #91A1AC",
"b. c #8FA6B1",
"n. c #8EA5B1",
"m. c #94A7B2",
"M. c #91A5B1",
"N. c #90A9B3",
"B. c #92AAB5",
"V. c #92AEBB",
"C. c #97ADBA",
"Z. c #95AEBA",
"A. c #98ACB9",
"S. c #99AEBB",
"D. c #95B3BE",
"F. c #94B0BC",
"G. c #95B2BE",
"H. c #99B1BE",
"J. c #97B3C0",
"K. c #97B7C3",
"L. c #96B4C1",
"P. c #99B6C2",
"I. c #98B8C5",
"U. c #99BBC8",
"Y. c #9ABCC9",
/* pixels */
"q.q.q.3.o.(   y ] #.P.A.0.q.q.q.q.q.q.q.q.8.q.q.q.7.X.} @ # [ @.G.L.q.q.q.q.q.q.q.q.q.q.q.q.q.0.q.q.#. .q   ( o.N.I.e.0.q.q.q.q.",
"6.<.<.<.=.[ O u ,.1.z.a.2.2.2.2.<.6.2.6.6.<.3.3.3.<.$. .= , %.>.j.x.3.<.3.3.2.<.<.6.2.2.6.<.6.<.3.<.%.#.e O | >.u.l.4.<.2.2.2.2.",
" . . .#.q.-.1 K U.N.]  . . . . . . . . . . . . . .X.q.7.6 g V.G.O. . . . . . . . . . . . . . . . . .7.q.z 3 u.Y.>. . . . . . . .",
" . . .#.7.$.: x A.j.o. . . . . . . . . . . . . . . .<.<.6 s M.m.#. . . . . . . . . . . . . . . . .X.<.6.z 3 5.S.#. . . . . . . .",
" . . . .#.) 3 z q.6. . . . . . . . . . . . . . . . .o.] 6 8 6.7.#. . .@. . . . . . . . . . . . . . .o. .l 3 *.q.#. . . . . . . .",
" . . . . ./ : x q.6. . . . . . . .@.o. . . . . . . .] ` 9 g 6.7. . . . . . . . . . . . . . .@. . .X.] ] h : :.q.#. . . . . . . .",
" . .o.] R U b D q.6. . . . . . . . . . . . . . .X. .Q R n Z 6.7.#. . . . . . . . .#. .O... ... . .X.! R C n ,.q.#.O. . . . . . .",
" . . .] W U b P q.6. . .@. . . . . .o. . . . . .] ] W U b C 7.7. . . . .o. .@. . . . . . . . . . . .W W V i =.q.#. . . . . .#. .",
" . . .' W U b P q.6. . . . . . . . . . . . . . .R R R Y m C 7.7.o. . . . . . . . . .O. . . . . . . .W W 8 3 *.f.#.O. . . . . . .",
" . . .' R I t J q.3. . . .X. .X. . . . . . . .] / ! W R i C 3.7.#. . . . . ... . . . . . . .@. . . .Q R 0 > -.q.#. . . . . . . .",
"....O. .W I 2 c e.6. . . . .o... . . .@.@. .R W O. .W E 6 d 9.8. . . . ... . . . . ... . . . . .@.@.Q W Z n ;.q.#. . . . . .O. .",
"'  . .) I L $ j 7.<.o.#. . .] ]  .]  .}  .} R W  .' I L 5 s :.3.#.#. . . . . . . . . . .'  .{  .'  .T L M b %.7.=.#. . . . . . .",
"R R Q I 4 > . p #.%.q.7.#. .W W W W W Y W W W W W T 6 3 X #  .#.q.q.#. .#. .O...W R  .#.W W R W W R 8 6 # X _ #.7.q.$. .#.#.o.#.",
"U U T H > > o q ` [ :.&.} _ L I L I L I U Y U I I L 5 > X q ( [ -.-.{ ) ' ` ` _ I I ( ` E T T I U U 7 3 # @ ~ [ &.:. .' ` ( _ _ ",
"b i 2 : . X X X . O 3 5 b t   o o o . * b b b t 5 2 X . X X . O 3 3 3 3 3 3 X X o o X X $ 3 3 3 b n & . X . X X : 3 3 3 + o O X ",
"D J l g w w w w w y l k S Z q ; o * q q D D S J j g w p q p w e f g l l l l w ; @ o q q j x l l G D p q w w w w f l d g = o = q ",
"L.m.q.8.8.8.8.8.8.8.q.8.8.3.#._ o ;  .@.L.C.8.8.q.0.0.q.q.6.q.6.....6.q.q.q.O. .- o _ X.B.L.q.q.q.q.8.q.q.8.8.8.8.q.#.@.y   ( #.",
"B.c.6.7.6.7.7.7.6.7.7.7.7.3.#.[ O w #.>.N.n.7.6.6.6.6.6.6.6.6.6. . .6.6.6.6.#.O.= @  .>.x.B.0.6.6.6.6.6.6.7.7.6.7.7.%.#.u . ( #.",
" .O. . . . . . . . . .#. .#.q.:.3 k G.B.@. . . . . . . .#. .R R R R  . . . .7.6.d 6 n.D.#.X.O. . . . . . . . . . . .3.q.x 2 / #.",
" . . . . . . . . . . .o. .@.8.;.3 l A.M. . .O. . . . . . . ./ W W Q  . . ...6.6.d 6 s.F.#. . . .O. ... . .@. . . . .<.7.c $ ) #.",
" . .@. .@. . . . . . . . . .#.' 3 g 8.7.O. . . . . .O. .W W 6.7.#. . . . . .@. .8 6 :.q.O. . . . . . .@. . ... . . . .o.l 1 ) @.",
" . . . . . .@. .o. . . . . . .) 5 j 7.6. . . .@. . . . .! ) 6.6.O. . . . . . .] s 7 :.q.O. ... . . . . . . . . . . . . .h 5 / #.",
" .@. . . . . . . . . . . . .W U b A 8.7. .@. . . . .W W 8.6... . . . . . . .W Y M m 3.q.#. . . . . . . ... . . . . .^ W Z b _ #.",
" . . . .@. .O. . . . . . .] W U b S 8.7. . . . .....W / 6.6.#. . . . .#. . .Q W B B 3.q.#. . . .O. .o. . . .@. . . .Q R Z b _ #.",
" .@. . . . . . . . . . . . .R U b S 8.6. . . .O. . . . . . . . . . . . . . .W R 8 6 :.q.#.O. . . . . . . . . . . . .Q W Z b _ o.",
" . . . . . . . . . . . . .} W U b S 8.7.O. . . . . . . . . . . . . . . . . .W R 7 6 :.q.#. . . . . . . . . . . . .#.Q R Z b _ o.",
" . . . . . . . . . . . . . .W U b S 8.7.O. . . . .@. . . . . . .@. . . . . .W R 8 7 :.q.#. .W R  .o. . . .@. . . . .Q W Z b _ #.",
"@.#. . . . . . . . . . . .{ Y I b A 7.3.O.O. . . . . . . . . . . . . . . . .W I 7 7 :.8.#.O.^ W '  .]  . . . . . . .W T V b _ o.",
"q.<. . .R ! O. .R W W W ! T 6 5 . q O.#.q.6.O. .#. .#. .W W W W W W W W R R s 6 @ # [ #.6.q.#. .! W W W W W Q Q W W g 4 = . ( #.",
"6.<. .` T W  .` I I I I T I 4 > X q [  .6.<. .{ '  .} [ Y I T I R E R E R Y 6 5 @ o (  .:.6. .} W U U R I I I I R R 8 4 + X ~  .",
"6 s C B 6 > * * * * @ * 6 5 O @ X @ @ * 6 6 6 4 6 6 * * * * @ * 6 6 6 6 B b * X X o # * 7 8 B m M M * * * * * @ > 6 + . O X * * ",
"6 f C B 8 7 * * o @ * = 8 s - * - * q * 8 8 d d 8 7 * * o @ * * s s 8 s C B q - @ q q * 7 8 C C C C - * o o * * s d q - = * - * ",
"6.6.6.6.6.:. .^ X q { @.B.M.3.6.3.3.3.6.6.6.6.6.9.:. ._ @ * [  .n.B.4.6.3.3.3.6.3.3.3.3.6.6.3.6.6.4.O.[ q . ( ] j.B.5.2.3.3.3.6.",
"9.8.8.7.0.3.#.` X y @.>.F.B.8.7.8.8.8.7.8.8.7.q.7.9.#. .# *  .>.B.C.q.8.8.8.0.8.q.7.8.8.8.8.8.8.8.8.#.#.w . ` %.l.D.e.7.8.8.8.9.",
"O.O.O.O.O.%.q.&.$ x V.l.@.#. .#.O.@. .#.O.O.#. .O.#.8.:.7 s n.B.#.@.@.@.@.O.O.O. .#. .#.O.@.O.@.@.@.6.8.l 3 r.H.>. . .@.@.O.O.O.",
" . . . . .#.q.&.2 v L.n. . . . . . . . . . . . . .O.0.3.6 d B.V.#. . . . . . .O. . . . . . . . . . .3.q.z 3 t.P.>. . . . . . .O.",
"O. . . . . .#.' 2 z q.4. . . . .O. . .O. .O. . .O. .@. .6 d 3.0.#. . . . .O. . . . . . . . . . . . .@.#.g 3 :.e.#. .@. . . . . .",
" . . .O. . .o.) 3 z q.6. . .#. . . . . . . . . .O. . .{ 6 d 6.9. . .@. . . . . . .#. . . .O. . . . . . .g 3 :.q.#. . . . . . . .",
" . . . . .] W I 3 x q.6.o. . . . . . . . . . . . . .W Y b Z 3.7.#. . . . . . .@. . . .@. .o. .o. . ./ W 8 3 -.q.#.O. . . . .@. .",
" .#. . ...' W I 3 z q.3. . . . . . .@. .O. . . . . .W Y m C 9.8. . . .@. . . . . . . . . . . . . . .Q R 0 3 -.q.#. . . .@. . . .",
" . .o. .#.` W U b P 0.6. . . .o. . . . .#. . . . . .R R 7 8 6.8.o. . . .@. . . . . .@. . . . . .O. .! W V M ;.q.#.O. . . . . . .",
" . . . . . .R U n P 0.6. . . . . .@. . . . . . . . .W T 6 8 6.8.O. . . . . . .o. . . . . . .@. . .@.W R Z b ,.q.#. . ... ... . .",
" . .@. . .] W U b S q.6. . .o. . . . . . .@. . .@. .W R M C 6.8.#. . . . . . . . . . .o.@. . . . . .Q R C b ;.q.#. ... . ...O. .",
" . . . . .] R U b P q.6. . . . . . .@. . . . . . . .W U m C 6.8. . . . . .o. . .@. . . . . . . . . .W R Z b <.q.#.O. . . . . . .",
" . . . .o.] W I 5 z q.3. . . . . . . . . . . . .O. .W Y m C 7.8.#. . . . . . .@. . . . . . . .@.#. .W W f 5 -.q.#. ./ W  ... . .",
" . . . . . .R I 2 z q.3. . . . . .@. . . .o. . . . .R Y b Z 3.8. . . . . . . . . . . . . . . . . . .Q R 8 2 &.q.#. .Q T '  . . .",
"Q Q Q W ! I 6 7 O y #.#.7.<. . .Q Q Q W Q Q Q W Q R 0 7 * q O.#.6.6. . . . . . ./ W Q Q Q Q Q Q Q Q g 8 = O [ #.<.7.#. ./ W W W ",
"R R R R W I 3 5 o q  .#.q.6. . .R R W R R R R W W I 6 3 o * [ #.7.q.@. . .o. . .W R R W R R R R R R 8 3 # o ( o.6.q.#.@./ R R W ",
"8 8 8 8 8 6 * O O * q w l g q q = ; = ; C C C V 8 7 = O @ @ q q A G l 0 g f q q ; = = - B C Z C 9 8 = O @ o q q A S h d 8 8 , = ",
"6 5 5 5 6 > o o o o X O 3 2 X X X X X * b b m b 5 > O o o X . X b b 5 3 3 5 @ . X X o o t n b n 7 3 O o o o . . t b > 4 5 3 # X ",
":.:.-.:.:.=._ } ;.;.;.;.:.=.` ~ o ; _ } i.i.<.;.:.:.;.-.;.;.;.*.;.,.:.:.:.:.[ ( = @ ^ [ y.h.,.:.:.:.;.-.*.;.;.*.;.;.:.:.:.:.;.;.",
"q.q.q.q.q.7. .$.q.q.q.q.q.7.#.[ X ;  .%.L.H.q.0.q.q.q.q.f.q.q.q.q.q.q.q.q.0.#. .q o [ #.C.I.d.q.q.q.q.q.f.q.q.q.q.q.g.q.q.q.q.q.",
"#.#.O.#.#. .W / #.#.#.#.#.#.6.-.: g l.z.%.%.#.#.#.#.#.#.#.#.#.#.#.#.#.#.#.#.3.3.s > t.N.>.#.#.#.#.#.#.#.#.#.#.#.#.#.#.#.#.#.#.#.",
" . . . . .{ R !  . . . . .#.q.:.3 z L.B. . . . . . . . . . . . ... . . . . .8.8.d 6 n.P.#. . . . . . . . . . . . . . . . . . . .",
" . . . . . . .` W /  . . . .=.{ 3 l e.4. . . . . . .O. . . .O. . . . . . . .#.O.8 6 3.d.#. ... . . .@. . . . . . . . . . . . . .",
" . . . . . .O. .R ^ @. . . .o.' 3 l 0.7. . . . . . . . . . . . . . . . .O. .O. .8 6 :.q.#. . . . . . . . . ... . . . .O. . . .O.",
" . . . . . . . .]  .@. .#.] ! Y i G 7.7. . .o. .@. .o. . . . . . ... . .O. ./ W B M <.q.O. . . . . . . . . . . .O. .O. . . .O. .",
" . . . . . . . ... . . . . .R U b S 7.6. . . . . . . . . .o. . . . . . . . .W R C m <.q.O. . . .#. . . . .o. . . . . . . . . . .",
"@. . . . . . . . . . . . . .W Y b S q.7. . . . . . . . . . . . ... . . . . .W R M M <.q.O. . ... . . . . . . . . . . . . . . . .",
" . . . .#.@. . ... ... . . .W Y n S 7.4. . . . . . . . .o. . . ....... .O. .^ W C m 3.q.#. . . . . . . . .#.o. .O.O.O. .@.o.@.@.",
" . . . .Q / o.] Q Q Q Q ! R g 8 * r #.$.2.<. . . . . . .Q !  . ./ Q ! Q ^ W l 0 - -  .#.<.6.o. . . . . .! Q  .o./ Q Q ! Q Q Q ! ",
"#.#.o.] R Q #. .R W W W W I 4 3 . ;  .#.q.q.X.o.#.#.o. .W W o. .W R W W W R 6 3 O @ ` #.0.q.#.o.#.o.o.#.! W ] X.! R W R W W W W ",
"0 G S S Z Z P G g 0 g g Z B # # X * y u K c h h J S S S Z Z S J g 0 0 0 Z Z = * o @ y u x c G S S S S S Z Z S S Z Z h 0 V Z y , ",
"2 < b n b b n i 3 3 3 < m t o o * O   O 3 2 3 3 b b b b n b n b 5 3 3 5 M b % O * O   . : 3 b b b b b n b n b b n n < 2 M n * . "
};
